<?xml version="1.0" encoding="utf-8" standalone="no"?>
<!DOCTYPE svg PUBLIC "-//W3C//DTD SVG 1.1//EN"
  "http://www.w3.org/Graphics/SVG/1.1/DTD/svg11.dtd">
<!-- Created with matplotlib (https://matplotlib.org/) -->
<svg height="288pt" version="1.1" viewBox="0 0 360 288" width="360pt" xmlns="http://www.w3.org/2000/svg" xmlns:xlink="http://www.w3.org/1999/xlink">
 <metadata>
  <rdf:RDF xmlns:cc="http://creativecommons.org/ns#" xmlns:dc="http://purl.org/dc/elements/1.1/" xmlns:rdf="http://www.w3.org/1999/02/22-rdf-syntax-ns#">
   <cc:Work>
    <dc:type rdf:resource="http://purl.org/dc/dcmitype/StillImage"/>
    <dc:date>2022-04-30T13:45:41.822574</dc:date>
    <dc:format>image/svg+xml</dc:format>
    <dc:creator>
     <cc:Agent>
      <dc:title>Matplotlib v3.3.3, https://matplotlib.org/</dc:title>
     </cc:Agent>
    </dc:creator>
   </cc:Work>
  </rdf:RDF>
 </metadata>
 <defs>
  <style type="text/css">*{stroke-linecap:butt;stroke-linejoin:round;}</style>
 </defs>
 <g id="figure_1">
  <g id="patch_1">
   <path d="M 0 288 
L 360 288 
L 360 0 
L 0 0 
z
" style="fill:#ffffff;"/>
  </g>
  <g id="axes_1">
   <g id="patch_2">
    <path d="M 45 256.32 
L 324 256.32 
L 324 34.56 
L 45 34.56 
z
" style="fill:#ffffff;"/>
   </g>
   <g id="matplotlib.axis_1">
    <g id="xtick_1">
     <g id="line2d_1">
      <defs>
       <path d="M 0 0 
L 0 3.5 
" id="m16863809b0" style="stroke:#000000;stroke-width:0.8;"/>
      </defs>
      <g>
       <use style="stroke:#000000;stroke-width:0.8;" x="57.318962" xlink:href="#m16863809b0" y="256.32"/>
      </g>
     </g>
     <g id="text_1">
      <!-- 0 -->
      <g transform="translate(54.137712 270.918437)scale(0.1 -0.1)">
       <defs>
        <path d="M 31.78125 66.40625 
Q 24.171875 66.40625 20.328125 58.90625 
Q 16.5 51.421875 16.5 36.375 
Q 16.5 21.390625 20.328125 13.890625 
Q 24.171875 6.390625 31.78125 6.390625 
Q 39.453125 6.390625 43.28125 13.890625 
Q 47.125 21.390625 47.125 36.375 
Q 47.125 51.421875 43.28125 58.90625 
Q 39.453125 66.40625 31.78125 66.40625 
z
M 31.78125 74.21875 
Q 44.046875 74.21875 50.515625 64.515625 
Q 56.984375 54.828125 56.984375 36.375 
Q 56.984375 17.96875 50.515625 8.265625 
Q 44.046875 -1.421875 31.78125 -1.421875 
Q 19.53125 -1.421875 13.0625 8.265625 
Q 6.59375 17.96875 6.59375 36.375 
Q 6.59375 54.828125 13.0625 64.515625 
Q 19.53125 74.21875 31.78125 74.21875 
z
" id="DejaVuSans-48"/>
       </defs>
       <use xlink:href="#DejaVuSans-48"/>
      </g>
     </g>
    </g>
    <g id="xtick_2">
     <g id="line2d_2">
      <g>
       <use style="stroke:#000000;stroke-width:0.8;" x="93.604565" xlink:href="#m16863809b0" y="256.32"/>
      </g>
     </g>
     <g id="text_2">
      <!-- 100 -->
      <g transform="translate(84.060815 270.918437)scale(0.1 -0.1)">
       <defs>
        <path d="M 12.40625 8.296875 
L 28.515625 8.296875 
L 28.515625 63.921875 
L 10.984375 60.40625 
L 10.984375 69.390625 
L 28.421875 72.90625 
L 38.28125 72.90625 
L 38.28125 8.296875 
L 54.390625 8.296875 
L 54.390625 0 
L 12.40625 0 
z
" id="DejaVuSans-49"/>
       </defs>
       <use xlink:href="#DejaVuSans-49"/>
       <use x="63.623047" xlink:href="#DejaVuSans-48"/>
       <use x="127.246094" xlink:href="#DejaVuSans-48"/>
      </g>
     </g>
    </g>
    <g id="xtick_3">
     <g id="line2d_3">
      <g>
       <use style="stroke:#000000;stroke-width:0.8;" x="129.890168" xlink:href="#m16863809b0" y="256.32"/>
      </g>
     </g>
     <g id="text_3">
      <!-- 200 -->
      <g transform="translate(120.346418 270.918437)scale(0.1 -0.1)">
       <defs>
        <path d="M 19.1875 8.296875 
L 53.609375 8.296875 
L 53.609375 0 
L 7.328125 0 
L 7.328125 8.296875 
Q 12.9375 14.109375 22.625 23.890625 
Q 32.328125 33.6875 34.8125 36.53125 
Q 39.546875 41.84375 41.421875 45.53125 
Q 43.3125 49.21875 43.3125 52.78125 
Q 43.3125 58.59375 39.234375 62.25 
Q 35.15625 65.921875 28.609375 65.921875 
Q 23.96875 65.921875 18.8125 64.3125 
Q 13.671875 62.703125 7.8125 59.421875 
L 7.8125 69.390625 
Q 13.765625 71.78125 18.9375 73 
Q 24.125 74.21875 28.421875 74.21875 
Q 39.75 74.21875 46.484375 68.546875 
Q 53.21875 62.890625 53.21875 53.421875 
Q 53.21875 48.921875 51.53125 44.890625 
Q 49.859375 40.875 45.40625 35.40625 
Q 44.1875 33.984375 37.640625 27.21875 
Q 31.109375 20.453125 19.1875 8.296875 
z
" id="DejaVuSans-50"/>
       </defs>
       <use xlink:href="#DejaVuSans-50"/>
       <use x="63.623047" xlink:href="#DejaVuSans-48"/>
       <use x="127.246094" xlink:href="#DejaVuSans-48"/>
      </g>
     </g>
    </g>
    <g id="xtick_4">
     <g id="line2d_4">
      <g>
       <use style="stroke:#000000;stroke-width:0.8;" x="166.175771" xlink:href="#m16863809b0" y="256.32"/>
      </g>
     </g>
     <g id="text_4">
      <!-- 300 -->
      <g transform="translate(156.632021 270.918437)scale(0.1 -0.1)">
       <defs>
        <path d="M 40.578125 39.3125 
Q 47.65625 37.796875 51.625 33 
Q 55.609375 28.21875 55.609375 21.1875 
Q 55.609375 10.40625 48.1875 4.484375 
Q 40.765625 -1.421875 27.09375 -1.421875 
Q 22.515625 -1.421875 17.65625 -0.515625 
Q 12.796875 0.390625 7.625 2.203125 
L 7.625 11.71875 
Q 11.71875 9.328125 16.59375 8.109375 
Q 21.484375 6.890625 26.8125 6.890625 
Q 36.078125 6.890625 40.9375 10.546875 
Q 45.796875 14.203125 45.796875 21.1875 
Q 45.796875 27.640625 41.28125 31.265625 
Q 36.765625 34.90625 28.71875 34.90625 
L 20.21875 34.90625 
L 20.21875 43.015625 
L 29.109375 43.015625 
Q 36.375 43.015625 40.234375 45.921875 
Q 44.09375 48.828125 44.09375 54.296875 
Q 44.09375 59.90625 40.109375 62.90625 
Q 36.140625 65.921875 28.71875 65.921875 
Q 24.65625 65.921875 20.015625 65.03125 
Q 15.375 64.15625 9.8125 62.3125 
L 9.8125 71.09375 
Q 15.4375 72.65625 20.34375 73.4375 
Q 25.25 74.21875 29.59375 74.21875 
Q 40.828125 74.21875 47.359375 69.109375 
Q 53.90625 64.015625 53.90625 55.328125 
Q 53.90625 49.265625 50.4375 45.09375 
Q 46.96875 40.921875 40.578125 39.3125 
z
" id="DejaVuSans-51"/>
       </defs>
       <use xlink:href="#DejaVuSans-51"/>
       <use x="63.623047" xlink:href="#DejaVuSans-48"/>
       <use x="127.246094" xlink:href="#DejaVuSans-48"/>
      </g>
     </g>
    </g>
    <g id="xtick_5">
     <g id="line2d_5">
      <g>
       <use style="stroke:#000000;stroke-width:0.8;" x="202.461373" xlink:href="#m16863809b0" y="256.32"/>
      </g>
     </g>
     <g id="text_5">
      <!-- 400 -->
      <g transform="translate(192.917623 270.918437)scale(0.1 -0.1)">
       <defs>
        <path d="M 37.796875 64.3125 
L 12.890625 25.390625 
L 37.796875 25.390625 
z
M 35.203125 72.90625 
L 47.609375 72.90625 
L 47.609375 25.390625 
L 58.015625 25.390625 
L 58.015625 17.1875 
L 47.609375 17.1875 
L 47.609375 0 
L 37.796875 0 
L 37.796875 17.1875 
L 4.890625 17.1875 
L 4.890625 26.703125 
z
" id="DejaVuSans-52"/>
       </defs>
       <use xlink:href="#DejaVuSans-52"/>
       <use x="63.623047" xlink:href="#DejaVuSans-48"/>
       <use x="127.246094" xlink:href="#DejaVuSans-48"/>
      </g>
     </g>
    </g>
    <g id="xtick_6">
     <g id="line2d_6">
      <g>
       <use style="stroke:#000000;stroke-width:0.8;" x="238.746976" xlink:href="#m16863809b0" y="256.32"/>
      </g>
     </g>
     <g id="text_6">
      <!-- 500 -->
      <g transform="translate(229.203226 270.918437)scale(0.1 -0.1)">
       <defs>
        <path d="M 10.796875 72.90625 
L 49.515625 72.90625 
L 49.515625 64.59375 
L 19.828125 64.59375 
L 19.828125 46.734375 
Q 21.96875 47.46875 24.109375 47.828125 
Q 26.265625 48.1875 28.421875 48.1875 
Q 40.625 48.1875 47.75 41.5 
Q 54.890625 34.8125 54.890625 23.390625 
Q 54.890625 11.625 47.5625 5.09375 
Q 40.234375 -1.421875 26.90625 -1.421875 
Q 22.3125 -1.421875 17.546875 -0.640625 
Q 12.796875 0.140625 7.71875 1.703125 
L 7.71875 11.625 
Q 12.109375 9.234375 16.796875 8.0625 
Q 21.484375 6.890625 26.703125 6.890625 
Q 35.15625 6.890625 40.078125 11.328125 
Q 45.015625 15.765625 45.015625 23.390625 
Q 45.015625 31 40.078125 35.4375 
Q 35.15625 39.890625 26.703125 39.890625 
Q 22.75 39.890625 18.8125 39.015625 
Q 14.890625 38.140625 10.796875 36.28125 
z
" id="DejaVuSans-53"/>
       </defs>
       <use xlink:href="#DejaVuSans-53"/>
       <use x="63.623047" xlink:href="#DejaVuSans-48"/>
       <use x="127.246094" xlink:href="#DejaVuSans-48"/>
      </g>
     </g>
    </g>
    <g id="xtick_7">
     <g id="line2d_7">
      <g>
       <use style="stroke:#000000;stroke-width:0.8;" x="275.032579" xlink:href="#m16863809b0" y="256.32"/>
      </g>
     </g>
     <g id="text_7">
      <!-- 600 -->
      <g transform="translate(265.488829 270.918437)scale(0.1 -0.1)">
       <defs>
        <path d="M 33.015625 40.375 
Q 26.375 40.375 22.484375 35.828125 
Q 18.609375 31.296875 18.609375 23.390625 
Q 18.609375 15.53125 22.484375 10.953125 
Q 26.375 6.390625 33.015625 6.390625 
Q 39.65625 6.390625 43.53125 10.953125 
Q 47.40625 15.53125 47.40625 23.390625 
Q 47.40625 31.296875 43.53125 35.828125 
Q 39.65625 40.375 33.015625 40.375 
z
M 52.59375 71.296875 
L 52.59375 62.3125 
Q 48.875 64.0625 45.09375 64.984375 
Q 41.3125 65.921875 37.59375 65.921875 
Q 27.828125 65.921875 22.671875 59.328125 
Q 17.53125 52.734375 16.796875 39.40625 
Q 19.671875 43.65625 24.015625 45.921875 
Q 28.375 48.1875 33.59375 48.1875 
Q 44.578125 48.1875 50.953125 41.515625 
Q 57.328125 34.859375 57.328125 23.390625 
Q 57.328125 12.15625 50.6875 5.359375 
Q 44.046875 -1.421875 33.015625 -1.421875 
Q 20.359375 -1.421875 13.671875 8.265625 
Q 6.984375 17.96875 6.984375 36.375 
Q 6.984375 53.65625 15.1875 63.9375 
Q 23.390625 74.21875 37.203125 74.21875 
Q 40.921875 74.21875 44.703125 73.484375 
Q 48.484375 72.75 52.59375 71.296875 
z
" id="DejaVuSans-54"/>
       </defs>
       <use xlink:href="#DejaVuSans-54"/>
       <use x="63.623047" xlink:href="#DejaVuSans-48"/>
       <use x="127.246094" xlink:href="#DejaVuSans-48"/>
      </g>
     </g>
    </g>
    <g id="xtick_8">
     <g id="line2d_8">
      <g>
       <use style="stroke:#000000;stroke-width:0.8;" x="311.318182" xlink:href="#m16863809b0" y="256.32"/>
      </g>
     </g>
     <g id="text_8">
      <!-- 700 -->
      <g transform="translate(301.774432 270.918437)scale(0.1 -0.1)">
       <defs>
        <path d="M 8.203125 72.90625 
L 55.078125 72.90625 
L 55.078125 68.703125 
L 28.609375 0 
L 18.3125 0 
L 43.21875 64.59375 
L 8.203125 64.59375 
z
" id="DejaVuSans-55"/>
       </defs>
       <use xlink:href="#DejaVuSans-55"/>
       <use x="63.623047" xlink:href="#DejaVuSans-48"/>
       <use x="127.246094" xlink:href="#DejaVuSans-48"/>
      </g>
     </g>
    </g>
    <g id="text_9">
     <!-- epochs -->
     <g transform="translate(166.667188 284.596563)scale(0.1 -0.1)">
      <defs>
       <path d="M 56.203125 29.59375 
L 56.203125 25.203125 
L 14.890625 25.203125 
Q 15.484375 15.921875 20.484375 11.0625 
Q 25.484375 6.203125 34.421875 6.203125 
Q 39.59375 6.203125 44.453125 7.46875 
Q 49.3125 8.734375 54.109375 11.28125 
L 54.109375 2.78125 
Q 49.265625 0.734375 44.1875 -0.34375 
Q 39.109375 -1.421875 33.890625 -1.421875 
Q 20.796875 -1.421875 13.15625 6.1875 
Q 5.515625 13.8125 5.515625 26.8125 
Q 5.515625 40.234375 12.765625 48.109375 
Q 20.015625 56 32.328125 56 
Q 43.359375 56 49.78125 48.890625 
Q 56.203125 41.796875 56.203125 29.59375 
z
M 47.21875 32.234375 
Q 47.125 39.59375 43.09375 43.984375 
Q 39.0625 48.390625 32.421875 48.390625 
Q 24.90625 48.390625 20.390625 44.140625 
Q 15.875 39.890625 15.1875 32.171875 
z
" id="DejaVuSans-101"/>
       <path d="M 18.109375 8.203125 
L 18.109375 -20.796875 
L 9.078125 -20.796875 
L 9.078125 54.6875 
L 18.109375 54.6875 
L 18.109375 46.390625 
Q 20.953125 51.265625 25.265625 53.625 
Q 29.59375 56 35.59375 56 
Q 45.5625 56 51.78125 48.09375 
Q 58.015625 40.1875 58.015625 27.296875 
Q 58.015625 14.40625 51.78125 6.484375 
Q 45.5625 -1.421875 35.59375 -1.421875 
Q 29.59375 -1.421875 25.265625 0.953125 
Q 20.953125 3.328125 18.109375 8.203125 
z
M 48.6875 27.296875 
Q 48.6875 37.203125 44.609375 42.84375 
Q 40.53125 48.484375 33.40625 48.484375 
Q 26.265625 48.484375 22.1875 42.84375 
Q 18.109375 37.203125 18.109375 27.296875 
Q 18.109375 17.390625 22.1875 11.75 
Q 26.265625 6.109375 33.40625 6.109375 
Q 40.53125 6.109375 44.609375 11.75 
Q 48.6875 17.390625 48.6875 27.296875 
z
" id="DejaVuSans-112"/>
       <path d="M 30.609375 48.390625 
Q 23.390625 48.390625 19.1875 42.75 
Q 14.984375 37.109375 14.984375 27.296875 
Q 14.984375 17.484375 19.15625 11.84375 
Q 23.34375 6.203125 30.609375 6.203125 
Q 37.796875 6.203125 41.984375 11.859375 
Q 46.1875 17.53125 46.1875 27.296875 
Q 46.1875 37.015625 41.984375 42.703125 
Q 37.796875 48.390625 30.609375 48.390625 
z
M 30.609375 56 
Q 42.328125 56 49.015625 48.375 
Q 55.71875 40.765625 55.71875 27.296875 
Q 55.71875 13.875 49.015625 6.21875 
Q 42.328125 -1.421875 30.609375 -1.421875 
Q 18.84375 -1.421875 12.171875 6.21875 
Q 5.515625 13.875 5.515625 27.296875 
Q 5.515625 40.765625 12.171875 48.375 
Q 18.84375 56 30.609375 56 
z
" id="DejaVuSans-111"/>
       <path d="M 48.78125 52.59375 
L 48.78125 44.1875 
Q 44.96875 46.296875 41.140625 47.34375 
Q 37.3125 48.390625 33.40625 48.390625 
Q 24.65625 48.390625 19.8125 42.84375 
Q 14.984375 37.3125 14.984375 27.296875 
Q 14.984375 17.28125 19.8125 11.734375 
Q 24.65625 6.203125 33.40625 6.203125 
Q 37.3125 6.203125 41.140625 7.25 
Q 44.96875 8.296875 48.78125 10.40625 
L 48.78125 2.09375 
Q 45.015625 0.34375 40.984375 -0.53125 
Q 36.96875 -1.421875 32.421875 -1.421875 
Q 20.0625 -1.421875 12.78125 6.34375 
Q 5.515625 14.109375 5.515625 27.296875 
Q 5.515625 40.671875 12.859375 48.328125 
Q 20.21875 56 33.015625 56 
Q 37.15625 56 41.109375 55.140625 
Q 45.0625 54.296875 48.78125 52.59375 
z
" id="DejaVuSans-99"/>
       <path d="M 54.890625 33.015625 
L 54.890625 0 
L 45.90625 0 
L 45.90625 32.71875 
Q 45.90625 40.484375 42.875 44.328125 
Q 39.84375 48.1875 33.796875 48.1875 
Q 26.515625 48.1875 22.3125 43.546875 
Q 18.109375 38.921875 18.109375 30.90625 
L 18.109375 0 
L 9.078125 0 
L 9.078125 75.984375 
L 18.109375 75.984375 
L 18.109375 46.1875 
Q 21.34375 51.125 25.703125 53.5625 
Q 30.078125 56 35.796875 56 
Q 45.21875 56 50.046875 50.171875 
Q 54.890625 44.34375 54.890625 33.015625 
z
" id="DejaVuSans-104"/>
       <path d="M 44.28125 53.078125 
L 44.28125 44.578125 
Q 40.484375 46.53125 36.375 47.5 
Q 32.28125 48.484375 27.875 48.484375 
Q 21.1875 48.484375 17.84375 46.4375 
Q 14.5 44.390625 14.5 40.28125 
Q 14.5 37.15625 16.890625 35.375 
Q 19.28125 33.59375 26.515625 31.984375 
L 29.59375 31.296875 
Q 39.15625 29.25 43.1875 25.515625 
Q 47.21875 21.78125 47.21875 15.09375 
Q 47.21875 7.46875 41.1875 3.015625 
Q 35.15625 -1.421875 24.609375 -1.421875 
Q 20.21875 -1.421875 15.453125 -0.5625 
Q 10.6875 0.296875 5.421875 2 
L 5.421875 11.28125 
Q 10.40625 8.6875 15.234375 7.390625 
Q 20.0625 6.109375 24.8125 6.109375 
Q 31.15625 6.109375 34.5625 8.28125 
Q 37.984375 10.453125 37.984375 14.40625 
Q 37.984375 18.0625 35.515625 20.015625 
Q 33.0625 21.96875 24.703125 23.78125 
L 21.578125 24.515625 
Q 13.234375 26.265625 9.515625 29.90625 
Q 5.8125 33.546875 5.8125 39.890625 
Q 5.8125 47.609375 11.28125 51.796875 
Q 16.75 56 26.8125 56 
Q 31.78125 56 36.171875 55.265625 
Q 40.578125 54.546875 44.28125 53.078125 
z
" id="DejaVuSans-115"/>
      </defs>
      <use xlink:href="#DejaVuSans-101"/>
      <use x="61.523438" xlink:href="#DejaVuSans-112"/>
      <use x="125" xlink:href="#DejaVuSans-111"/>
      <use x="186.181641" xlink:href="#DejaVuSans-99"/>
      <use x="241.162109" xlink:href="#DejaVuSans-104"/>
      <use x="304.541016" xlink:href="#DejaVuSans-115"/>
     </g>
    </g>
   </g>
   <g id="matplotlib.axis_2">
    <g id="ytick_1">
     <g id="line2d_9">
      <defs>
       <path d="M 0 0 
L -3.5 0 
" id="mab7885b79d" style="stroke:#000000;stroke-width:0.8;"/>
      </defs>
      <g>
       <use style="stroke:#000000;stroke-width:0.8;" x="45" xlink:href="#mab7885b79d" y="222.839138"/>
      </g>
     </g>
     <g id="text_10">
      <!-- 0.2 -->
      <g transform="translate(22.096875 226.638356)scale(0.1 -0.1)">
       <defs>
        <path d="M 10.6875 12.40625 
L 21 12.40625 
L 21 0 
L 10.6875 0 
z
" id="DejaVuSans-46"/>
       </defs>
       <use xlink:href="#DejaVuSans-48"/>
       <use x="63.623047" xlink:href="#DejaVuSans-46"/>
       <use x="95.410156" xlink:href="#DejaVuSans-50"/>
      </g>
     </g>
    </g>
    <g id="ytick_2">
     <g id="line2d_10">
      <g>
       <use style="stroke:#000000;stroke-width:0.8;" x="45" xlink:href="#mab7885b79d" y="174.540144"/>
      </g>
     </g>
     <g id="text_11">
      <!-- 0.4 -->
      <g transform="translate(22.096875 178.339362)scale(0.1 -0.1)">
       <use xlink:href="#DejaVuSans-48"/>
       <use x="63.623047" xlink:href="#DejaVuSans-46"/>
       <use x="95.410156" xlink:href="#DejaVuSans-52"/>
      </g>
     </g>
    </g>
    <g id="ytick_3">
     <g id="line2d_11">
      <g>
       <use style="stroke:#000000;stroke-width:0.8;" x="45" xlink:href="#mab7885b79d" y="126.24115"/>
      </g>
     </g>
     <g id="text_12">
      <!-- 0.6 -->
      <g transform="translate(22.096875 130.040369)scale(0.1 -0.1)">
       <use xlink:href="#DejaVuSans-48"/>
       <use x="63.623047" xlink:href="#DejaVuSans-46"/>
       <use x="95.410156" xlink:href="#DejaVuSans-54"/>
      </g>
     </g>
    </g>
    <g id="ytick_4">
     <g id="line2d_12">
      <g>
       <use style="stroke:#000000;stroke-width:0.8;" x="45" xlink:href="#mab7885b79d" y="77.942156"/>
      </g>
     </g>
     <g id="text_13">
      <!-- 0.8 -->
      <g transform="translate(22.096875 81.741375)scale(0.1 -0.1)">
       <defs>
        <path d="M 31.78125 34.625 
Q 24.75 34.625 20.71875 30.859375 
Q 16.703125 27.09375 16.703125 20.515625 
Q 16.703125 13.921875 20.71875 10.15625 
Q 24.75 6.390625 31.78125 6.390625 
Q 38.8125 6.390625 42.859375 10.171875 
Q 46.921875 13.96875 46.921875 20.515625 
Q 46.921875 27.09375 42.890625 30.859375 
Q 38.875 34.625 31.78125 34.625 
z
M 21.921875 38.8125 
Q 15.578125 40.375 12.03125 44.71875 
Q 8.5 49.078125 8.5 55.328125 
Q 8.5 64.0625 14.71875 69.140625 
Q 20.953125 74.21875 31.78125 74.21875 
Q 42.671875 74.21875 48.875 69.140625 
Q 55.078125 64.0625 55.078125 55.328125 
Q 55.078125 49.078125 51.53125 44.71875 
Q 48 40.375 41.703125 38.8125 
Q 48.828125 37.15625 52.796875 32.3125 
Q 56.78125 27.484375 56.78125 20.515625 
Q 56.78125 9.90625 50.3125 4.234375 
Q 43.84375 -1.421875 31.78125 -1.421875 
Q 19.734375 -1.421875 13.25 4.234375 
Q 6.78125 9.90625 6.78125 20.515625 
Q 6.78125 27.484375 10.78125 32.3125 
Q 14.796875 37.15625 21.921875 38.8125 
z
M 18.3125 54.390625 
Q 18.3125 48.734375 21.84375 45.5625 
Q 25.390625 42.390625 31.78125 42.390625 
Q 38.140625 42.390625 41.71875 45.5625 
Q 45.3125 48.734375 45.3125 54.390625 
Q 45.3125 60.0625 41.71875 63.234375 
Q 38.140625 66.40625 31.78125 66.40625 
Q 25.390625 66.40625 21.84375 63.234375 
Q 18.3125 60.0625 18.3125 54.390625 
z
" id="DejaVuSans-56"/>
       </defs>
       <use xlink:href="#DejaVuSans-48"/>
       <use x="63.623047" xlink:href="#DejaVuSans-46"/>
       <use x="95.410156" xlink:href="#DejaVuSans-56"/>
      </g>
     </g>
    </g>
    <g id="text_14">
     <!-- accuracy -->
     <g transform="translate(16.017187 167.999375)rotate(-90)scale(0.1 -0.1)">
      <defs>
       <path d="M 34.28125 27.484375 
Q 23.390625 27.484375 19.1875 25 
Q 14.984375 22.515625 14.984375 16.5 
Q 14.984375 11.71875 18.140625 8.90625 
Q 21.296875 6.109375 26.703125 6.109375 
Q 34.1875 6.109375 38.703125 11.40625 
Q 43.21875 16.703125 43.21875 25.484375 
L 43.21875 27.484375 
z
M 52.203125 31.203125 
L 52.203125 0 
L 43.21875 0 
L 43.21875 8.296875 
Q 40.140625 3.328125 35.546875 0.953125 
Q 30.953125 -1.421875 24.3125 -1.421875 
Q 15.921875 -1.421875 10.953125 3.296875 
Q 6 8.015625 6 15.921875 
Q 6 25.140625 12.171875 29.828125 
Q 18.359375 34.515625 30.609375 34.515625 
L 43.21875 34.515625 
L 43.21875 35.40625 
Q 43.21875 41.609375 39.140625 45 
Q 35.0625 48.390625 27.6875 48.390625 
Q 23 48.390625 18.546875 47.265625 
Q 14.109375 46.140625 10.015625 43.890625 
L 10.015625 52.203125 
Q 14.9375 54.109375 19.578125 55.046875 
Q 24.21875 56 28.609375 56 
Q 40.484375 56 46.34375 49.84375 
Q 52.203125 43.703125 52.203125 31.203125 
z
" id="DejaVuSans-97"/>
       <path d="M 8.5 21.578125 
L 8.5 54.6875 
L 17.484375 54.6875 
L 17.484375 21.921875 
Q 17.484375 14.15625 20.5 10.265625 
Q 23.53125 6.390625 29.59375 6.390625 
Q 36.859375 6.390625 41.078125 11.03125 
Q 45.3125 15.671875 45.3125 23.6875 
L 45.3125 54.6875 
L 54.296875 54.6875 
L 54.296875 0 
L 45.3125 0 
L 45.3125 8.40625 
Q 42.046875 3.421875 37.71875 1 
Q 33.40625 -1.421875 27.6875 -1.421875 
Q 18.265625 -1.421875 13.375 4.4375 
Q 8.5 10.296875 8.5 21.578125 
z
M 31.109375 56 
z
" id="DejaVuSans-117"/>
       <path d="M 41.109375 46.296875 
Q 39.59375 47.171875 37.8125 47.578125 
Q 36.03125 48 33.890625 48 
Q 26.265625 48 22.1875 43.046875 
Q 18.109375 38.09375 18.109375 28.8125 
L 18.109375 0 
L 9.078125 0 
L 9.078125 54.6875 
L 18.109375 54.6875 
L 18.109375 46.1875 
Q 20.953125 51.171875 25.484375 53.578125 
Q 30.03125 56 36.53125 56 
Q 37.453125 56 38.578125 55.875 
Q 39.703125 55.765625 41.0625 55.515625 
z
" id="DejaVuSans-114"/>
       <path d="M 32.171875 -5.078125 
Q 28.375 -14.84375 24.75 -17.8125 
Q 21.140625 -20.796875 15.09375 -20.796875 
L 7.90625 -20.796875 
L 7.90625 -13.28125 
L 13.1875 -13.28125 
Q 16.890625 -13.28125 18.9375 -11.515625 
Q 21 -9.765625 23.484375 -3.21875 
L 25.09375 0.875 
L 2.984375 54.6875 
L 12.5 54.6875 
L 29.59375 11.921875 
L 46.6875 54.6875 
L 56.203125 54.6875 
z
" id="DejaVuSans-121"/>
      </defs>
      <use xlink:href="#DejaVuSans-97"/>
      <use x="61.279297" xlink:href="#DejaVuSans-99"/>
      <use x="116.259766" xlink:href="#DejaVuSans-99"/>
      <use x="171.240234" xlink:href="#DejaVuSans-117"/>
      <use x="234.619141" xlink:href="#DejaVuSans-114"/>
      <use x="275.732422" xlink:href="#DejaVuSans-97"/>
      <use x="337.011719" xlink:href="#DejaVuSans-99"/>
      <use x="391.992188" xlink:href="#DejaVuSans-121"/>
     </g>
    </g>
   </g>
   <g id="line2d_13">
    <path clip-path="url(#p68b123211b)" d="M 57.681818 246.24 
L 58.044674 239.333244 
L 58.40753 229.745894 
L 58.770386 194.89817 
L 59.133242 145.295103 
L 59.496098 244.839329 
L 59.858954 218.87862 
L 60.22181 215.352793 
L 60.584666 153.771576 
L 60.947522 135.152314 
L 61.310378 211.247379 
L 62.398947 112.475937 
L 62.761803 102.043354 
L 63.124659 79.729219 
L 63.487515 108.781064 
L 63.850371 87.698553 
L 64.213227 81.830225 
L 64.576083 95.885232 
L 64.938939 123.36736 
L 65.301795 81.926823 
L 66.027507 78.883987 
L 66.390363 89.533915 
L 66.753219 89.968606 
L 67.116075 86.466929 
L 67.478931 80.598601 
L 67.841787 71.832333 
L 68.204643 82.409813 
L 68.567499 77.966306 
L 68.930355 69.827925 
L 69.293211 69.634729 
L 69.656067 71.832333 
L 70.018923 68.354806 
L 70.381779 56.449104 
L 70.744635 55.628021 
L 71.107491 137.881207 
L 71.833203 58.429363 
L 72.196059 54.879387 
L 72.558915 67.895966 
L 72.921771 74.488778 
L 73.284627 69.079291 
L 73.647483 55.338227 
L 74.010339 54.782789 
L 74.373195 92.6492 
L 74.736052 97.141006 
L 75.098908 61.085807 
L 75.461764 60.313023 
L 75.82462 55.603872 
L 76.187476 53.889257 
L 76.913188 66.833388 
L 77.276044 108.684466 
L 77.6389 74.826871 
L 78.001756 81.902674 
L 78.364612 72.846612 
L 78.727468 73.812592 
L 79.45318 63.621505 
L 79.816036 70.57656 
L 80.178892 63.669804 
L 80.541748 66.422846 
L 80.904604 62.631375 
L 81.26746 68.861945 
L 81.630316 70.962952 
L 81.993172 62.558927 
L 82.356028 69.175889 
L 82.718884 63.041917 
L 83.08174 65.384418 
L 83.444596 60.94091 
L 83.807452 68.185759 
L 84.170308 64.78068 
L 84.533164 63.114365 
L 84.89602 78.859837 
L 85.258876 51.281112 
L 85.621732 52.005597 
L 85.984588 53.092324 
L 86.347444 49.663095 
L 86.7103 53.068174 
L 87.073156 49.397451 
L 87.436012 147.37196 
L 87.798869 94.774356 
L 88.161725 69.58643 
L 88.524581 60.723565 
L 88.887437 59.202147 
L 89.250293 48.648816 
L 89.613149 47.851883 
L 89.976005 54.010005 
L 90.338861 56.135161 
L 90.701717 49.373301 
L 91.064573 48.214126 
L 91.427429 49.373301 
L 91.790285 49.276703 
L 92.153141 76.831279 
L 92.515997 71.373493 
L 92.878853 53.840958 
L 93.241709 56.111011 
L 93.604565 61.230704 
L 93.967421 56.424954 
L 94.330277 55.821217 
L 94.693133 55.941965 
L 95.055989 56.304207 
L 95.418845 55.628021 
L 95.781701 59.0331 
L 96.144557 56.15931 
L 96.507413 55.289928 
L 97.233125 60.192276 
L 97.595981 56.980393 
L 97.958837 56.376655 
L 98.321693 56.111011 
L 98.684549 58.55011 
L 99.047405 54.565443 
L 99.410261 57.58413 
L 99.773117 58.525961 
L 100.135973 79.705069 
L 100.861686 51.063766 
L 101.224542 48.407322 
L 101.587398 50.435879 
L 101.950254 47.803584 
L 102.31311 114.818438 
L 103.038822 52.681782 
L 103.401678 52.053896 
L 103.764534 65.094624 
L 104.12739 59.733436 
L 104.490246 52.31954 
L 104.853102 48.069229 
L 105.215958 56.207609 
L 105.578814 48.47977 
L 105.94167 47.900182 
L 106.304526 77.217671 
L 106.667382 78.690791 
L 107.030238 48.238275 
L 107.393094 49.542348 
L 108.118806 48.334873 
L 108.481662 47.972631 
L 108.844518 47.223996 
L 109.57023 46.958352 
L 109.933086 47.0308 
L 110.295942 46.813455 
L 110.658798 46.934202 
L 111.021654 46.837604 
L 111.38451 46.596109 
L 111.747366 46.668558 
L 112.110222 46.54781 
L 112.473078 46.57196 
L 112.835934 46.354614 
L 113.19879 46.596109 
L 113.561647 46.668558 
L 113.924503 46.354614 
L 114.287359 46.427063 
L 115.013071 46.306315 
L 115.375927 47.006651 
L 115.738783 132.592468 
L 116.101639 111.051116 
L 116.464495 63.210963 
L 117.190207 46.113119 
L 117.553063 46.137269 
L 117.915919 89.244121 
L 118.641631 49.011059 
L 119.004487 49.325002 
L 119.367343 46.378764 
L 119.730199 46.378764 
L 120.093055 47.948481 
L 120.455911 53.985855 
L 120.818767 50.025338 
L 121.181623 63.549056 
L 121.544479 67.099032 
L 121.907335 47.876033 
L 122.270191 47.199847 
L 122.633047 46.161418 
L 123.358759 46.57196 
L 123.721615 46.08897 
L 124.084471 45.992372 
L 124.447327 46.209717 
L 124.810183 45.799176 
L 125.173039 46.137269 
L 125.535895 46.692707 
L 125.898751 46.06482 
L 126.624464 45.847475 
L 126.98732 46.08897 
L 127.350176 45.944073 
L 127.713032 45.654279 
L 128.075888 45.533531 
L 128.438744 45.919923 
L 129.164456 45.799176 
L 129.527312 45.702578 
L 129.890168 55.555573 
L 130.61588 45.60598 
L 130.978736 45.678428 
L 131.341592 46.306315 
L 131.704448 46.57196 
L 132.067304 153.047092 
L 132.43016 89.847858 
L 132.793016 70.238467 
L 133.155872 67.147331 
L 133.518728 46.837604 
L 133.881584 49.44575 
L 134.24444 45.726727 
L 134.607296 46.161418 
L 134.970152 68.717048 
L 135.333008 60.675266 
L 135.695864 166.860604 
L 136.421576 45.654279 
L 136.784432 52.416138 
L 137.147288 45.557681 
L 137.510144 46.716857 
L 137.873 46.451212 
L 138.235856 47.079099 
L 138.598712 46.499511 
L 138.961568 46.789305 
L 139.687281 46.475362 
L 140.775849 46.451212 
L 141.138705 46.692707 
L 141.501561 46.499511 
L 141.864417 46.934202 
L 142.227273 46.378764 
L 143.315841 46.958352 
L 143.678697 46.813455 
L 144.041553 46.837604 
L 144.404409 47.0308 
L 144.767265 52.730081 
L 145.130121 54.565443 
L 145.492977 153.457633 
L 146.218689 46.185568 
L 146.581545 46.330465 
L 146.944401 73.90919 
L 147.307257 74.947619 
L 147.670113 46.982501 
L 148.032969 46.982501 
L 148.395825 70.721457 
L 148.758681 60.192276 
L 149.121537 129.13909 
L 149.847249 49.035208 
L 150.210105 50.484178 
L 150.572961 45.895774 
L 150.935817 45.557681 
L 151.298673 46.716857 
L 151.661529 46.08897 
L 152.024385 228.731615 
L 152.387242 111.606555 
L 152.750098 89.461466 
L 153.112954 104.265108 
L 153.838666 82.168318 
L 154.201522 106.269516 
L 154.564378 79.68092 
L 154.927234 78.23195 
L 155.29009 99.676703 
L 155.652946 95.52299 
L 156.015802 96.319923 
L 156.378658 83.0377 
L 156.741514 76.034346 
L 157.10437 83.327494 
L 157.467226 75.140815 
L 157.830082 85.235304 
L 158.192938 78.352698 
L 158.555794 75.696253 
L 158.91865 81.926823 
L 159.281506 71.808184 
L 159.644362 54.613742 
L 160.007218 52.609334 
L 160.370074 75.623805 
L 160.73293 79.801667 
L 161.095786 53.357968 
L 161.458642 52.222942 
L 161.821498 56.111011 
L 162.184354 53.502865 
L 162.54721 58.332765 
L 162.910066 55.579722 
L 163.272922 59.371193 
L 163.635778 61.641246 
L 163.998634 54.831088 
L 164.36149 52.029746 
L 164.724346 57.173589 
L 165.087202 52.536885 
L 165.450059 56.569851 
L 165.812915 52.681782 
L 166.175771 54.927686 
L 166.538627 52.367839 
L 166.901483 57.390934 
L 167.264339 52.367839 
L 167.627195 51.498457 
L 167.990051 51.329411 
L 168.352907 50.580776 
L 169.441475 49.638946 
L 169.804331 49.856291 
L 170.530043 48.93861 
L 170.892899 48.890311 
L 171.255755 49.155956 
L 171.618611 48.407322 
L 172.344323 48.310724 
L 172.707179 49.228404 
L 173.070035 48.50392 
L 173.432891 48.986909 
L 173.795747 48.383172 
L 174.158603 48.407322 
L 174.521459 48.214126 
L 174.884315 47.706986 
L 175.247171 80.260508 
L 175.610027 74.126536 
L 175.972883 54.034154 
L 176.335739 52.657633 
L 176.698595 64.708232 
L 177.061451 60.844312 
L 177.424307 48.600517 
L 177.787163 49.373301 
L 178.15002 47.99678 
L 178.512876 47.900182 
L 178.875732 49.44575 
L 179.238588 50.194384 
L 179.601444 73.643546 
L 179.9643 73.836742 
L 180.327156 58.236167 
L 180.690012 56.956243 
L 181.052868 48.165827 
L 181.415724 48.359023 
L 181.77858 47.924332 
L 182.141436 47.682837 
L 182.504292 48.093378 
L 182.867148 47.755285 
L 183.230004 47.706986 
L 183.59286 47.851883 
L 183.955716 47.851883 
L 184.318572 48.093378 
L 184.681428 47.441342 
L 185.044284 47.99678 
L 185.40714 48.238275 
L 185.769996 48.093378 
L 186.132852 48.189976 
L 186.495708 47.731136 
L 187.22142 48.238275 
L 187.947132 47.99678 
L 188.309988 48.189976 
L 188.672844 47.610388 
L 189.0357 47.779435 
L 189.398556 54.831088 
L 189.761412 55.19333 
L 190.124268 47.489641 
L 190.487124 47.851883 
L 190.84998 83.230896 
L 191.212837 95.716186 
L 191.575693 47.827734 
L 191.938549 47.006651 
L 192.301405 49.663095 
L 192.664261 49.952889 
L 193.027117 78.400997 
L 193.389973 67.123182 
L 193.752829 48.576368 
L 194.115685 48.648816 
L 194.478541 55.120882 
L 194.841397 51.546756 
L 195.204253 64.29769 
L 195.567109 60.192276 
L 195.929965 95.184897 
L 196.292821 79.511874 
L 197.018533 83.110149 
L 197.381389 75.478908 
L 197.744245 70.431663 
L 198.107101 67.920115 
L 198.832813 71.566689 
L 199.195669 71.735736 
L 199.558525 80.743498 
L 199.921381 64.007897 
L 200.647093 75.672103 
L 201.009949 65.360268 
L 201.372805 69.175889 
L 201.735661 65.432717 
L 202.098517 72.991509 
L 202.461373 69.683028 
L 202.824229 63.863 
L 203.187085 65.601763 
L 203.549941 70.962952 
L 203.912798 74.39218 
L 204.275654 54.179051 
L 204.63851 55.748769 
L 205.727078 49.663095 
L 206.089934 48.359023 
L 206.45279 73.498649 
L 206.815646 74.223134 
L 207.178502 50.025338 
L 207.541358 49.180105 
L 207.904214 52.126344 
L 208.26707 50.266833 
L 208.629926 62.510628 
L 208.992782 66.374547 
L 209.355638 51.739952 
L 209.718494 49.494049 
L 210.08135 51.908999 
L 210.444206 50.218534 
L 210.807062 51.184514 
L 211.169918 49.228404 
L 211.532774 61.834442 
L 211.89563 59.854183 
L 212.258486 69.272487 
L 212.621342 75.020067 
L 212.984198 73.571097 
L 213.70991 59.781735 
L 214.072766 74.029938 
L 214.435622 64.659933 
L 214.798478 60.288874 
L 215.161334 74.223134 
L 215.52419 65.915707 
L 215.887046 67.074883 
L 216.249902 64.056195 
L 216.612758 75.116665 
L 216.975615 61.858591 
L 217.338471 66.616042 
L 217.701327 61.882741 
L 218.064183 65.988155 
L 218.427039 62.969468 
L 218.789895 75.406459 
L 219.152751 50.266833 
L 219.515607 48.866162 
L 219.878463 88.036646 
L 220.241319 84.46252 
L 220.604175 49.083507 
L 220.967031 48.93861 
L 221.329887 55.67632 
L 221.692743 53.961706 
L 222.055599 49.228404 
L 222.418455 48.262425 
L 222.781311 51.884849 
L 223.144167 49.90459 
L 223.869879 75.647954 
L 224.232735 51.764102 
L 224.595591 51.184514 
L 224.958447 49.397451 
L 225.321303 48.189976 
L 225.684159 50.846421 
L 226.047015 48.238275 
L 226.409871 59.830034 
L 226.772727 64.490886 
L 227.135583 70.721457 
L 227.861295 64.587484 
L 228.224151 58.888203 
L 228.587007 79.22208 
L 228.949863 66.688491 
L 229.312719 59.854183 
L 229.675575 63.090216 
L 230.038432 68.258208 
L 230.764144 63.621505 
L 231.127 63.863 
L 231.489856 62.776272 
L 232.215568 67.050733 
L 232.578424 63.693953 
L 232.94128 70.987101 
L 233.304136 66.567743 
L 233.666992 67.050733 
L 234.029848 76.082645 
L 234.392704 74.368031 
L 234.75556 50.773972 
L 235.844128 46.620259 
L 236.206984 48.793713 
L 236.56984 47.658687 
L 236.932696 54.662041 
L 237.295552 54.879387 
L 237.658408 49.832142 
L 238.021264 49.44575 
L 238.38412 49.880441 
L 238.746976 48.455621 
L 239.109832 48.624667 
L 239.472688 47.948481 
L 239.835544 68.330656 
L 240.1984 71.204447 
L 240.561256 49.107657 
L 240.924112 47.682837 
L 241.286968 52.995726 
L 241.649824 62.075937 
L 242.01268 53.599463 
L 242.375536 58.187868 
L 242.738393 58.308615 
L 243.101249 56.424954 
L 243.464105 61.327302 
L 243.826961 60.313023 
L 244.189817 56.231759 
L 244.552673 58.453512 
L 244.915529 54.468845 
L 245.641241 60.675266 
L 246.366953 55.652171 
L 246.729809 57.729027 
L 247.092665 65.408567 
L 247.455521 61.592947 
L 247.818377 59.298745 
L 248.181233 53.527015 
L 248.906945 48.986909 
L 249.269801 54.71034 
L 249.632657 48.334873 
L 249.995513 46.910053 
L 250.358369 82.989401 
L 250.721225 84.100278 
L 251.084081 47.151548 
L 251.446937 46.57196 
L 251.809793 67.70277 
L 252.172649 68.354806 
L 252.535505 47.53794 
L 252.898361 46.837604 
L 253.261217 47.562089 
L 253.624073 47.151548 
L 254.349785 88.857729 
L 254.712641 54.73449 
L 255.075497 55.289928 
L 255.438353 47.779435 
L 255.80121 46.620259 
L 256.164066 47.924332 
L 256.526922 46.427063 
L 256.889778 46.451212 
L 257.252634 46.185568 
L 257.61549 45.436933 
L 257.978346 45.654279 
L 259.066914 45.654279 
L 259.42977 45.171289 
L 259.792626 45.654279 
L 260.881194 45.267887 
L 261.24405 45.678428 
L 261.606906 45.557681 
L 261.969762 45.630129 
L 262.332618 45.485232 
L 263.05833 45.726727 
L 263.421186 46.741006 
L 263.784042 50.025338 
L 264.146898 163.914365 
L 264.509754 79.874116 
L 264.87261 45.485232 
L 265.235466 45.388634 
L 265.598322 45.726727 
L 265.961178 57.849775 
L 266.324034 59.274595 
L 266.68689 45.871624 
L 267.049746 45.750877 
L 267.412602 67.509574 
L 267.775458 67.437125 
L 268.138314 45.243737 
L 268.501171 45.147139 
L 268.864027 53.430417 
L 269.226883 54.662041 
L 269.589739 45.654279 
L 269.952595 46.499511 
L 270.315451 45.12299 
L 270.678307 45.364485 
L 271.041163 45.412784 
L 271.404019 45.219588 
L 271.766875 44.760747 
L 272.129731 44.953943 
L 272.492587 44.736598 
L 272.855443 44.953943 
L 273.218299 44.881495 
L 273.944011 45.219588 
L 274.306867 45.412784 
L 275.395435 45.002242 
L 275.758291 45.195438 
L 276.121147 45.171289 
L 276.484003 45.267887 
L 276.846859 45.074691 
L 277.209715 45.292036 
L 277.572571 45.171289 
L 277.935427 45.171289 
L 278.298283 45.364485 
L 278.661139 45.388634 
L 279.023995 117.957873 
L 279.749707 53.116473 
L 280.112563 50.339281 
L 280.475419 45.436933 
L 280.838275 46.910053 
L 281.201131 52.585184 
L 281.563988 73.4262 
L 281.926844 56.135161 
L 282.2897 45.316186 
L 282.652556 45.388634 
L 283.015412 58.381064 
L 283.378268 55.507274 
L 283.741124 45.919923 
L 284.10398 45.750877 
L 284.466836 84.245175 
L 284.829692 62.583076 
L 285.192548 48.238275 
L 285.555404 48.431471 
L 285.91826 45.436933 
L 286.281116 45.243737 
L 286.643972 44.857345 
L 288.095396 44.760747 
L 288.458252 44.736598 
L 288.821108 45.026392 
L 289.183964 44.929794 
L 289.54682 45.171289 
L 289.909676 44.978093 
L 290.635388 45.292036 
L 290.998244 45.171289 
L 291.3611 45.292036 
L 292.449668 45.243737 
L 292.812524 45.364485 
L 293.17538 59.854183 
L 293.538236 59.05725 
L 293.901092 45.364485 
L 294.263948 45.09884 
L 294.626805 167.947331 
L 294.989661 85.45265 
L 295.352517 45.799176 
L 295.715373 46.161418 
L 296.078229 141.237988 
L 296.441085 61.109957 
L 296.803941 45.388634 
L 297.166797 45.09884 
L 297.529653 45.243737 
L 297.892509 51.83655 
L 298.255365 48.842012 
L 298.618221 78.980585 
L 298.981077 71.180297 
L 299.343933 45.074691 
L 299.706789 45.147139 
L 300.069645 47.248146 
L 300.432501 48.310724 
L 300.795357 45.171289 
L 301.158213 44.978093 
L 301.521069 45.171289 
L 302.609637 44.978093 
L 303.698205 45.074691 
L 304.061061 45.316186 
L 304.786773 45.002242 
L 305.149629 44.929794 
L 305.512485 44.64 
L 305.875341 45.074691 
L 306.238197 45.171289 
L 306.963909 45.002242 
L 307.326766 44.712448 
L 308.415334 45.171289 
L 308.77819 112.838179 
L 309.141046 101.463766 
L 309.503902 60.844312 
L 309.866758 52.464437 
L 310.229614 81.781926 
L 310.59247 69.707178 
L 310.955326 44.929794 
L 311.318182 44.712448 
L 311.318182 44.712448 
" style="fill:none;stroke:#ff0000;stroke-linecap:square;stroke-width:1.5;"/>
   </g>
   <g id="patch_3">
    <path d="M 45 256.32 
L 45 34.56 
" style="fill:none;stroke:#000000;stroke-linecap:square;stroke-linejoin:miter;stroke-width:0.8;"/>
   </g>
   <g id="patch_4">
    <path d="M 324 256.32 
L 324 34.56 
" style="fill:none;stroke:#000000;stroke-linecap:square;stroke-linejoin:miter;stroke-width:0.8;"/>
   </g>
   <g id="patch_5">
    <path d="M 45 256.32 
L 324 256.32 
" style="fill:none;stroke:#000000;stroke-linecap:square;stroke-linejoin:miter;stroke-width:0.8;"/>
   </g>
   <g id="patch_6">
    <path d="M 45 34.56 
L 324 34.56 
" style="fill:none;stroke:#000000;stroke-linecap:square;stroke-linejoin:miter;stroke-width:0.8;"/>
   </g>
   <g id="text_15">
    <!-- acc vs epochs (cifar10) -->
    <g transform="translate(114.889688 28.56)scale(0.12 -0.12)">
     <defs>
      <path id="DejaVuSans-32"/>
      <path d="M 2.984375 54.6875 
L 12.5 54.6875 
L 29.59375 8.796875 
L 46.6875 54.6875 
L 56.203125 54.6875 
L 35.6875 0 
L 23.484375 0 
z
" id="DejaVuSans-118"/>
      <path d="M 31 75.875 
Q 24.46875 64.65625 21.28125 53.65625 
Q 18.109375 42.671875 18.109375 31.390625 
Q 18.109375 20.125 21.3125 9.0625 
Q 24.515625 -2 31 -13.1875 
L 23.1875 -13.1875 
Q 15.875 -1.703125 12.234375 9.375 
Q 8.59375 20.453125 8.59375 31.390625 
Q 8.59375 42.28125 12.203125 53.3125 
Q 15.828125 64.359375 23.1875 75.875 
z
" id="DejaVuSans-40"/>
      <path d="M 9.421875 54.6875 
L 18.40625 54.6875 
L 18.40625 0 
L 9.421875 0 
z
M 9.421875 75.984375 
L 18.40625 75.984375 
L 18.40625 64.59375 
L 9.421875 64.59375 
z
" id="DejaVuSans-105"/>
      <path d="M 37.109375 75.984375 
L 37.109375 68.5 
L 28.515625 68.5 
Q 23.6875 68.5 21.796875 66.546875 
Q 19.921875 64.59375 19.921875 59.515625 
L 19.921875 54.6875 
L 34.71875 54.6875 
L 34.71875 47.703125 
L 19.921875 47.703125 
L 19.921875 0 
L 10.890625 0 
L 10.890625 47.703125 
L 2.296875 47.703125 
L 2.296875 54.6875 
L 10.890625 54.6875 
L 10.890625 58.5 
Q 10.890625 67.625 15.140625 71.796875 
Q 19.390625 75.984375 28.609375 75.984375 
z
" id="DejaVuSans-102"/>
      <path d="M 8.015625 75.875 
L 15.828125 75.875 
Q 23.140625 64.359375 26.78125 53.3125 
Q 30.421875 42.28125 30.421875 31.390625 
Q 30.421875 20.453125 26.78125 9.375 
Q 23.140625 -1.703125 15.828125 -13.1875 
L 8.015625 -13.1875 
Q 14.5 -2 17.703125 9.0625 
Q 20.90625 20.125 20.90625 31.390625 
Q 20.90625 42.671875 17.703125 53.65625 
Q 14.5 64.65625 8.015625 75.875 
z
" id="DejaVuSans-41"/>
     </defs>
     <use xlink:href="#DejaVuSans-97"/>
     <use x="61.279297" xlink:href="#DejaVuSans-99"/>
     <use x="116.259766" xlink:href="#DejaVuSans-99"/>
     <use x="171.240234" xlink:href="#DejaVuSans-32"/>
     <use x="203.027344" xlink:href="#DejaVuSans-118"/>
     <use x="262.207031" xlink:href="#DejaVuSans-115"/>
     <use x="314.306641" xlink:href="#DejaVuSans-32"/>
     <use x="346.09375" xlink:href="#DejaVuSans-101"/>
     <use x="407.617188" xlink:href="#DejaVuSans-112"/>
     <use x="471.09375" xlink:href="#DejaVuSans-111"/>
     <use x="532.275391" xlink:href="#DejaVuSans-99"/>
     <use x="587.255859" xlink:href="#DejaVuSans-104"/>
     <use x="650.634766" xlink:href="#DejaVuSans-115"/>
     <use x="702.734375" xlink:href="#DejaVuSans-32"/>
     <use x="734.521484" xlink:href="#DejaVuSans-40"/>
     <use x="773.535156" xlink:href="#DejaVuSans-99"/>
     <use x="828.515625" xlink:href="#DejaVuSans-105"/>
     <use x="856.298828" xlink:href="#DejaVuSans-102"/>
     <use x="891.503906" xlink:href="#DejaVuSans-97"/>
     <use x="952.783203" xlink:href="#DejaVuSans-114"/>
     <use x="993.896484" xlink:href="#DejaVuSans-49"/>
     <use x="1057.519531" xlink:href="#DejaVuSans-48"/>
     <use x="1121.142578" xlink:href="#DejaVuSans-41"/>
    </g>
   </g>
  </g>
 </g>
 <defs>
  <clipPath id="p68b123211b">
   <rect height="221.76" width="279" x="45" y="34.56"/>
  </clipPath>
 </defs>
</svg>
