<?xml version="1.0" encoding="utf-8" standalone="no"?>
<!DOCTYPE svg PUBLIC "-//W3C//DTD SVG 1.1//EN"
  "http://www.w3.org/Graphics/SVG/1.1/DTD/svg11.dtd">
<!-- Created with matplotlib (https://matplotlib.org/) -->
<svg height="288pt" version="1.1" viewBox="0 0 360 288" width="360pt" xmlns="http://www.w3.org/2000/svg" xmlns:xlink="http://www.w3.org/1999/xlink">
 <metadata>
  <rdf:RDF xmlns:cc="http://creativecommons.org/ns#" xmlns:dc="http://purl.org/dc/elements/1.1/" xmlns:rdf="http://www.w3.org/1999/02/22-rdf-syntax-ns#">
   <cc:Work>
    <dc:type rdf:resource="http://purl.org/dc/dcmitype/StillImage"/>
    <dc:date>2022-04-30T13:46:00.065781</dc:date>
    <dc:format>image/svg+xml</dc:format>
    <dc:creator>
     <cc:Agent>
      <dc:title>Matplotlib v3.3.3, https://matplotlib.org/</dc:title>
     </cc:Agent>
    </dc:creator>
   </cc:Work>
  </rdf:RDF>
 </metadata>
 <defs>
  <style type="text/css">*{stroke-linecap:butt;stroke-linejoin:round;}</style>
 </defs>
 <g id="figure_1">
  <g id="patch_1">
   <path d="M 0 288 
L 360 288 
L 360 0 
L 0 0 
z
" style="fill:#ffffff;"/>
  </g>
  <g id="axes_1">
   <g id="patch_2">
    <path d="M 45 256.32 
L 324 256.32 
L 324 34.56 
L 45 34.56 
z
" style="fill:#ffffff;"/>
   </g>
   <g id="matplotlib.axis_1">
    <g id="xtick_1">
     <g id="line2d_1">
      <defs>
       <path d="M 0 0 
L 0 3.5 
" id="md4641dc59d" style="stroke:#000000;stroke-width:0.8;"/>
      </defs>
      <g>
       <use style="stroke:#000000;stroke-width:0.8;" x="57.318962" xlink:href="#md4641dc59d" y="256.32"/>
      </g>
     </g>
     <g id="text_1">
      <!-- 0 -->
      <g transform="translate(54.137712 270.918437)scale(0.1 -0.1)">
       <defs>
        <path d="M 31.78125 66.40625 
Q 24.171875 66.40625 20.328125 58.90625 
Q 16.5 51.421875 16.5 36.375 
Q 16.5 21.390625 20.328125 13.890625 
Q 24.171875 6.390625 31.78125 6.390625 
Q 39.453125 6.390625 43.28125 13.890625 
Q 47.125 21.390625 47.125 36.375 
Q 47.125 51.421875 43.28125 58.90625 
Q 39.453125 66.40625 31.78125 66.40625 
z
M 31.78125 74.21875 
Q 44.046875 74.21875 50.515625 64.515625 
Q 56.984375 54.828125 56.984375 36.375 
Q 56.984375 17.96875 50.515625 8.265625 
Q 44.046875 -1.421875 31.78125 -1.421875 
Q 19.53125 -1.421875 13.0625 8.265625 
Q 6.59375 17.96875 6.59375 36.375 
Q 6.59375 54.828125 13.0625 64.515625 
Q 19.53125 74.21875 31.78125 74.21875 
z
" id="DejaVuSans-48"/>
       </defs>
       <use xlink:href="#DejaVuSans-48"/>
      </g>
     </g>
    </g>
    <g id="xtick_2">
     <g id="line2d_2">
      <g>
       <use style="stroke:#000000;stroke-width:0.8;" x="93.604565" xlink:href="#md4641dc59d" y="256.32"/>
      </g>
     </g>
     <g id="text_2">
      <!-- 100 -->
      <g transform="translate(84.060815 270.918437)scale(0.1 -0.1)">
       <defs>
        <path d="M 12.40625 8.296875 
L 28.515625 8.296875 
L 28.515625 63.921875 
L 10.984375 60.40625 
L 10.984375 69.390625 
L 28.421875 72.90625 
L 38.28125 72.90625 
L 38.28125 8.296875 
L 54.390625 8.296875 
L 54.390625 0 
L 12.40625 0 
z
" id="DejaVuSans-49"/>
       </defs>
       <use xlink:href="#DejaVuSans-49"/>
       <use x="63.623047" xlink:href="#DejaVuSans-48"/>
       <use x="127.246094" xlink:href="#DejaVuSans-48"/>
      </g>
     </g>
    </g>
    <g id="xtick_3">
     <g id="line2d_3">
      <g>
       <use style="stroke:#000000;stroke-width:0.8;" x="129.890168" xlink:href="#md4641dc59d" y="256.32"/>
      </g>
     </g>
     <g id="text_3">
      <!-- 200 -->
      <g transform="translate(120.346418 270.918437)scale(0.1 -0.1)">
       <defs>
        <path d="M 19.1875 8.296875 
L 53.609375 8.296875 
L 53.609375 0 
L 7.328125 0 
L 7.328125 8.296875 
Q 12.9375 14.109375 22.625 23.890625 
Q 32.328125 33.6875 34.8125 36.53125 
Q 39.546875 41.84375 41.421875 45.53125 
Q 43.3125 49.21875 43.3125 52.78125 
Q 43.3125 58.59375 39.234375 62.25 
Q 35.15625 65.921875 28.609375 65.921875 
Q 23.96875 65.921875 18.8125 64.3125 
Q 13.671875 62.703125 7.8125 59.421875 
L 7.8125 69.390625 
Q 13.765625 71.78125 18.9375 73 
Q 24.125 74.21875 28.421875 74.21875 
Q 39.75 74.21875 46.484375 68.546875 
Q 53.21875 62.890625 53.21875 53.421875 
Q 53.21875 48.921875 51.53125 44.890625 
Q 49.859375 40.875 45.40625 35.40625 
Q 44.1875 33.984375 37.640625 27.21875 
Q 31.109375 20.453125 19.1875 8.296875 
z
" id="DejaVuSans-50"/>
       </defs>
       <use xlink:href="#DejaVuSans-50"/>
       <use x="63.623047" xlink:href="#DejaVuSans-48"/>
       <use x="127.246094" xlink:href="#DejaVuSans-48"/>
      </g>
     </g>
    </g>
    <g id="xtick_4">
     <g id="line2d_4">
      <g>
       <use style="stroke:#000000;stroke-width:0.8;" x="166.175771" xlink:href="#md4641dc59d" y="256.32"/>
      </g>
     </g>
     <g id="text_4">
      <!-- 300 -->
      <g transform="translate(156.632021 270.918437)scale(0.1 -0.1)">
       <defs>
        <path d="M 40.578125 39.3125 
Q 47.65625 37.796875 51.625 33 
Q 55.609375 28.21875 55.609375 21.1875 
Q 55.609375 10.40625 48.1875 4.484375 
Q 40.765625 -1.421875 27.09375 -1.421875 
Q 22.515625 -1.421875 17.65625 -0.515625 
Q 12.796875 0.390625 7.625 2.203125 
L 7.625 11.71875 
Q 11.71875 9.328125 16.59375 8.109375 
Q 21.484375 6.890625 26.8125 6.890625 
Q 36.078125 6.890625 40.9375 10.546875 
Q 45.796875 14.203125 45.796875 21.1875 
Q 45.796875 27.640625 41.28125 31.265625 
Q 36.765625 34.90625 28.71875 34.90625 
L 20.21875 34.90625 
L 20.21875 43.015625 
L 29.109375 43.015625 
Q 36.375 43.015625 40.234375 45.921875 
Q 44.09375 48.828125 44.09375 54.296875 
Q 44.09375 59.90625 40.109375 62.90625 
Q 36.140625 65.921875 28.71875 65.921875 
Q 24.65625 65.921875 20.015625 65.03125 
Q 15.375 64.15625 9.8125 62.3125 
L 9.8125 71.09375 
Q 15.4375 72.65625 20.34375 73.4375 
Q 25.25 74.21875 29.59375 74.21875 
Q 40.828125 74.21875 47.359375 69.109375 
Q 53.90625 64.015625 53.90625 55.328125 
Q 53.90625 49.265625 50.4375 45.09375 
Q 46.96875 40.921875 40.578125 39.3125 
z
" id="DejaVuSans-51"/>
       </defs>
       <use xlink:href="#DejaVuSans-51"/>
       <use x="63.623047" xlink:href="#DejaVuSans-48"/>
       <use x="127.246094" xlink:href="#DejaVuSans-48"/>
      </g>
     </g>
    </g>
    <g id="xtick_5">
     <g id="line2d_5">
      <g>
       <use style="stroke:#000000;stroke-width:0.8;" x="202.461373" xlink:href="#md4641dc59d" y="256.32"/>
      </g>
     </g>
     <g id="text_5">
      <!-- 400 -->
      <g transform="translate(192.917623 270.918437)scale(0.1 -0.1)">
       <defs>
        <path d="M 37.796875 64.3125 
L 12.890625 25.390625 
L 37.796875 25.390625 
z
M 35.203125 72.90625 
L 47.609375 72.90625 
L 47.609375 25.390625 
L 58.015625 25.390625 
L 58.015625 17.1875 
L 47.609375 17.1875 
L 47.609375 0 
L 37.796875 0 
L 37.796875 17.1875 
L 4.890625 17.1875 
L 4.890625 26.703125 
z
" id="DejaVuSans-52"/>
       </defs>
       <use xlink:href="#DejaVuSans-52"/>
       <use x="63.623047" xlink:href="#DejaVuSans-48"/>
       <use x="127.246094" xlink:href="#DejaVuSans-48"/>
      </g>
     </g>
    </g>
    <g id="xtick_6">
     <g id="line2d_6">
      <g>
       <use style="stroke:#000000;stroke-width:0.8;" x="238.746976" xlink:href="#md4641dc59d" y="256.32"/>
      </g>
     </g>
     <g id="text_6">
      <!-- 500 -->
      <g transform="translate(229.203226 270.918437)scale(0.1 -0.1)">
       <defs>
        <path d="M 10.796875 72.90625 
L 49.515625 72.90625 
L 49.515625 64.59375 
L 19.828125 64.59375 
L 19.828125 46.734375 
Q 21.96875 47.46875 24.109375 47.828125 
Q 26.265625 48.1875 28.421875 48.1875 
Q 40.625 48.1875 47.75 41.5 
Q 54.890625 34.8125 54.890625 23.390625 
Q 54.890625 11.625 47.5625 5.09375 
Q 40.234375 -1.421875 26.90625 -1.421875 
Q 22.3125 -1.421875 17.546875 -0.640625 
Q 12.796875 0.140625 7.71875 1.703125 
L 7.71875 11.625 
Q 12.109375 9.234375 16.796875 8.0625 
Q 21.484375 6.890625 26.703125 6.890625 
Q 35.15625 6.890625 40.078125 11.328125 
Q 45.015625 15.765625 45.015625 23.390625 
Q 45.015625 31 40.078125 35.4375 
Q 35.15625 39.890625 26.703125 39.890625 
Q 22.75 39.890625 18.8125 39.015625 
Q 14.890625 38.140625 10.796875 36.28125 
z
" id="DejaVuSans-53"/>
       </defs>
       <use xlink:href="#DejaVuSans-53"/>
       <use x="63.623047" xlink:href="#DejaVuSans-48"/>
       <use x="127.246094" xlink:href="#DejaVuSans-48"/>
      </g>
     </g>
    </g>
    <g id="xtick_7">
     <g id="line2d_7">
      <g>
       <use style="stroke:#000000;stroke-width:0.8;" x="275.032579" xlink:href="#md4641dc59d" y="256.32"/>
      </g>
     </g>
     <g id="text_7">
      <!-- 600 -->
      <g transform="translate(265.488829 270.918437)scale(0.1 -0.1)">
       <defs>
        <path d="M 33.015625 40.375 
Q 26.375 40.375 22.484375 35.828125 
Q 18.609375 31.296875 18.609375 23.390625 
Q 18.609375 15.53125 22.484375 10.953125 
Q 26.375 6.390625 33.015625 6.390625 
Q 39.65625 6.390625 43.53125 10.953125 
Q 47.40625 15.53125 47.40625 23.390625 
Q 47.40625 31.296875 43.53125 35.828125 
Q 39.65625 40.375 33.015625 40.375 
z
M 52.59375 71.296875 
L 52.59375 62.3125 
Q 48.875 64.0625 45.09375 64.984375 
Q 41.3125 65.921875 37.59375 65.921875 
Q 27.828125 65.921875 22.671875 59.328125 
Q 17.53125 52.734375 16.796875 39.40625 
Q 19.671875 43.65625 24.015625 45.921875 
Q 28.375 48.1875 33.59375 48.1875 
Q 44.578125 48.1875 50.953125 41.515625 
Q 57.328125 34.859375 57.328125 23.390625 
Q 57.328125 12.15625 50.6875 5.359375 
Q 44.046875 -1.421875 33.015625 -1.421875 
Q 20.359375 -1.421875 13.671875 8.265625 
Q 6.984375 17.96875 6.984375 36.375 
Q 6.984375 53.65625 15.1875 63.9375 
Q 23.390625 74.21875 37.203125 74.21875 
Q 40.921875 74.21875 44.703125 73.484375 
Q 48.484375 72.75 52.59375 71.296875 
z
" id="DejaVuSans-54"/>
       </defs>
       <use xlink:href="#DejaVuSans-54"/>
       <use x="63.623047" xlink:href="#DejaVuSans-48"/>
       <use x="127.246094" xlink:href="#DejaVuSans-48"/>
      </g>
     </g>
    </g>
    <g id="xtick_8">
     <g id="line2d_8">
      <g>
       <use style="stroke:#000000;stroke-width:0.8;" x="311.318182" xlink:href="#md4641dc59d" y="256.32"/>
      </g>
     </g>
     <g id="text_8">
      <!-- 700 -->
      <g transform="translate(301.774432 270.918437)scale(0.1 -0.1)">
       <defs>
        <path d="M 8.203125 72.90625 
L 55.078125 72.90625 
L 55.078125 68.703125 
L 28.609375 0 
L 18.3125 0 
L 43.21875 64.59375 
L 8.203125 64.59375 
z
" id="DejaVuSans-55"/>
       </defs>
       <use xlink:href="#DejaVuSans-55"/>
       <use x="63.623047" xlink:href="#DejaVuSans-48"/>
       <use x="127.246094" xlink:href="#DejaVuSans-48"/>
      </g>
     </g>
    </g>
    <g id="text_9">
     <!-- epochs -->
     <g transform="translate(166.667188 284.596563)scale(0.1 -0.1)">
      <defs>
       <path d="M 56.203125 29.59375 
L 56.203125 25.203125 
L 14.890625 25.203125 
Q 15.484375 15.921875 20.484375 11.0625 
Q 25.484375 6.203125 34.421875 6.203125 
Q 39.59375 6.203125 44.453125 7.46875 
Q 49.3125 8.734375 54.109375 11.28125 
L 54.109375 2.78125 
Q 49.265625 0.734375 44.1875 -0.34375 
Q 39.109375 -1.421875 33.890625 -1.421875 
Q 20.796875 -1.421875 13.15625 6.1875 
Q 5.515625 13.8125 5.515625 26.8125 
Q 5.515625 40.234375 12.765625 48.109375 
Q 20.015625 56 32.328125 56 
Q 43.359375 56 49.78125 48.890625 
Q 56.203125 41.796875 56.203125 29.59375 
z
M 47.21875 32.234375 
Q 47.125 39.59375 43.09375 43.984375 
Q 39.0625 48.390625 32.421875 48.390625 
Q 24.90625 48.390625 20.390625 44.140625 
Q 15.875 39.890625 15.1875 32.171875 
z
" id="DejaVuSans-101"/>
       <path d="M 18.109375 8.203125 
L 18.109375 -20.796875 
L 9.078125 -20.796875 
L 9.078125 54.6875 
L 18.109375 54.6875 
L 18.109375 46.390625 
Q 20.953125 51.265625 25.265625 53.625 
Q 29.59375 56 35.59375 56 
Q 45.5625 56 51.78125 48.09375 
Q 58.015625 40.1875 58.015625 27.296875 
Q 58.015625 14.40625 51.78125 6.484375 
Q 45.5625 -1.421875 35.59375 -1.421875 
Q 29.59375 -1.421875 25.265625 0.953125 
Q 20.953125 3.328125 18.109375 8.203125 
z
M 48.6875 27.296875 
Q 48.6875 37.203125 44.609375 42.84375 
Q 40.53125 48.484375 33.40625 48.484375 
Q 26.265625 48.484375 22.1875 42.84375 
Q 18.109375 37.203125 18.109375 27.296875 
Q 18.109375 17.390625 22.1875 11.75 
Q 26.265625 6.109375 33.40625 6.109375 
Q 40.53125 6.109375 44.609375 11.75 
Q 48.6875 17.390625 48.6875 27.296875 
z
" id="DejaVuSans-112"/>
       <path d="M 30.609375 48.390625 
Q 23.390625 48.390625 19.1875 42.75 
Q 14.984375 37.109375 14.984375 27.296875 
Q 14.984375 17.484375 19.15625 11.84375 
Q 23.34375 6.203125 30.609375 6.203125 
Q 37.796875 6.203125 41.984375 11.859375 
Q 46.1875 17.53125 46.1875 27.296875 
Q 46.1875 37.015625 41.984375 42.703125 
Q 37.796875 48.390625 30.609375 48.390625 
z
M 30.609375 56 
Q 42.328125 56 49.015625 48.375 
Q 55.71875 40.765625 55.71875 27.296875 
Q 55.71875 13.875 49.015625 6.21875 
Q 42.328125 -1.421875 30.609375 -1.421875 
Q 18.84375 -1.421875 12.171875 6.21875 
Q 5.515625 13.875 5.515625 27.296875 
Q 5.515625 40.765625 12.171875 48.375 
Q 18.84375 56 30.609375 56 
z
" id="DejaVuSans-111"/>
       <path d="M 48.78125 52.59375 
L 48.78125 44.1875 
Q 44.96875 46.296875 41.140625 47.34375 
Q 37.3125 48.390625 33.40625 48.390625 
Q 24.65625 48.390625 19.8125 42.84375 
Q 14.984375 37.3125 14.984375 27.296875 
Q 14.984375 17.28125 19.8125 11.734375 
Q 24.65625 6.203125 33.40625 6.203125 
Q 37.3125 6.203125 41.140625 7.25 
Q 44.96875 8.296875 48.78125 10.40625 
L 48.78125 2.09375 
Q 45.015625 0.34375 40.984375 -0.53125 
Q 36.96875 -1.421875 32.421875 -1.421875 
Q 20.0625 -1.421875 12.78125 6.34375 
Q 5.515625 14.109375 5.515625 27.296875 
Q 5.515625 40.671875 12.859375 48.328125 
Q 20.21875 56 33.015625 56 
Q 37.15625 56 41.109375 55.140625 
Q 45.0625 54.296875 48.78125 52.59375 
z
" id="DejaVuSans-99"/>
       <path d="M 54.890625 33.015625 
L 54.890625 0 
L 45.90625 0 
L 45.90625 32.71875 
Q 45.90625 40.484375 42.875 44.328125 
Q 39.84375 48.1875 33.796875 48.1875 
Q 26.515625 48.1875 22.3125 43.546875 
Q 18.109375 38.921875 18.109375 30.90625 
L 18.109375 0 
L 9.078125 0 
L 9.078125 75.984375 
L 18.109375 75.984375 
L 18.109375 46.1875 
Q 21.34375 51.125 25.703125 53.5625 
Q 30.078125 56 35.796875 56 
Q 45.21875 56 50.046875 50.171875 
Q 54.890625 44.34375 54.890625 33.015625 
z
" id="DejaVuSans-104"/>
       <path d="M 44.28125 53.078125 
L 44.28125 44.578125 
Q 40.484375 46.53125 36.375 47.5 
Q 32.28125 48.484375 27.875 48.484375 
Q 21.1875 48.484375 17.84375 46.4375 
Q 14.5 44.390625 14.5 40.28125 
Q 14.5 37.15625 16.890625 35.375 
Q 19.28125 33.59375 26.515625 31.984375 
L 29.59375 31.296875 
Q 39.15625 29.25 43.1875 25.515625 
Q 47.21875 21.78125 47.21875 15.09375 
Q 47.21875 7.46875 41.1875 3.015625 
Q 35.15625 -1.421875 24.609375 -1.421875 
Q 20.21875 -1.421875 15.453125 -0.5625 
Q 10.6875 0.296875 5.421875 2 
L 5.421875 11.28125 
Q 10.40625 8.6875 15.234375 7.390625 
Q 20.0625 6.109375 24.8125 6.109375 
Q 31.15625 6.109375 34.5625 8.28125 
Q 37.984375 10.453125 37.984375 14.40625 
Q 37.984375 18.0625 35.515625 20.015625 
Q 33.0625 21.96875 24.703125 23.78125 
L 21.578125 24.515625 
Q 13.234375 26.265625 9.515625 29.90625 
Q 5.8125 33.546875 5.8125 39.890625 
Q 5.8125 47.609375 11.28125 51.796875 
Q 16.75 56 26.8125 56 
Q 31.78125 56 36.171875 55.265625 
Q 40.578125 54.546875 44.28125 53.078125 
z
" id="DejaVuSans-115"/>
      </defs>
      <use xlink:href="#DejaVuSans-101"/>
      <use x="61.523438" xlink:href="#DejaVuSans-112"/>
      <use x="125" xlink:href="#DejaVuSans-111"/>
      <use x="186.181641" xlink:href="#DejaVuSans-99"/>
      <use x="241.162109" xlink:href="#DejaVuSans-104"/>
      <use x="304.541016" xlink:href="#DejaVuSans-115"/>
     </g>
    </g>
   </g>
   <g id="matplotlib.axis_2">
    <g id="ytick_1">
     <g id="line2d_9">
      <defs>
       <path d="M 0 0 
L -3.5 0 
" id="m5b1f17829c" style="stroke:#000000;stroke-width:0.8;"/>
      </defs>
      <g>
       <use style="stroke:#000000;stroke-width:0.8;" x="45" xlink:href="#m5b1f17829c" y="248.441174"/>
      </g>
     </g>
     <g id="text_10">
      <!-- 0.0 -->
      <g transform="translate(22.096875 252.240392)scale(0.1 -0.1)">
       <defs>
        <path d="M 10.6875 12.40625 
L 21 12.40625 
L 21 0 
L 10.6875 0 
z
" id="DejaVuSans-46"/>
       </defs>
       <use xlink:href="#DejaVuSans-48"/>
       <use x="63.623047" xlink:href="#DejaVuSans-46"/>
       <use x="95.410156" xlink:href="#DejaVuSans-48"/>
      </g>
     </g>
    </g>
    <g id="ytick_2">
     <g id="line2d_10">
      <g>
       <use style="stroke:#000000;stroke-width:0.8;" x="45" xlink:href="#m5b1f17829c" y="220.926502"/>
      </g>
     </g>
     <g id="text_11">
      <!-- 0.1 -->
      <g transform="translate(22.096875 224.725721)scale(0.1 -0.1)">
       <use xlink:href="#DejaVuSans-48"/>
       <use x="63.623047" xlink:href="#DejaVuSans-46"/>
       <use x="95.410156" xlink:href="#DejaVuSans-49"/>
      </g>
     </g>
    </g>
    <g id="ytick_3">
     <g id="line2d_11">
      <g>
       <use style="stroke:#000000;stroke-width:0.8;" x="45" xlink:href="#m5b1f17829c" y="193.41183"/>
      </g>
     </g>
     <g id="text_12">
      <!-- 0.2 -->
      <g transform="translate(22.096875 197.211049)scale(0.1 -0.1)">
       <use xlink:href="#DejaVuSans-48"/>
       <use x="63.623047" xlink:href="#DejaVuSans-46"/>
       <use x="95.410156" xlink:href="#DejaVuSans-50"/>
      </g>
     </g>
    </g>
    <g id="ytick_4">
     <g id="line2d_12">
      <g>
       <use style="stroke:#000000;stroke-width:0.8;" x="45" xlink:href="#m5b1f17829c" y="165.897158"/>
      </g>
     </g>
     <g id="text_13">
      <!-- 0.3 -->
      <g transform="translate(22.096875 169.696377)scale(0.1 -0.1)">
       <use xlink:href="#DejaVuSans-48"/>
       <use x="63.623047" xlink:href="#DejaVuSans-46"/>
       <use x="95.410156" xlink:href="#DejaVuSans-51"/>
      </g>
     </g>
    </g>
    <g id="ytick_5">
     <g id="line2d_13">
      <g>
       <use style="stroke:#000000;stroke-width:0.8;" x="45" xlink:href="#m5b1f17829c" y="138.382487"/>
      </g>
     </g>
     <g id="text_14">
      <!-- 0.4 -->
      <g transform="translate(22.096875 142.181705)scale(0.1 -0.1)">
       <use xlink:href="#DejaVuSans-48"/>
       <use x="63.623047" xlink:href="#DejaVuSans-46"/>
       <use x="95.410156" xlink:href="#DejaVuSans-52"/>
      </g>
     </g>
    </g>
    <g id="ytick_6">
     <g id="line2d_14">
      <g>
       <use style="stroke:#000000;stroke-width:0.8;" x="45" xlink:href="#m5b1f17829c" y="110.867815"/>
      </g>
     </g>
     <g id="text_15">
      <!-- 0.5 -->
      <g transform="translate(22.096875 114.667034)scale(0.1 -0.1)">
       <use xlink:href="#DejaVuSans-48"/>
       <use x="63.623047" xlink:href="#DejaVuSans-46"/>
       <use x="95.410156" xlink:href="#DejaVuSans-53"/>
      </g>
     </g>
    </g>
    <g id="ytick_7">
     <g id="line2d_15">
      <g>
       <use style="stroke:#000000;stroke-width:0.8;" x="45" xlink:href="#m5b1f17829c" y="83.353143"/>
      </g>
     </g>
     <g id="text_16">
      <!-- 0.6 -->
      <g transform="translate(22.096875 87.152362)scale(0.1 -0.1)">
       <use xlink:href="#DejaVuSans-48"/>
       <use x="63.623047" xlink:href="#DejaVuSans-46"/>
       <use x="95.410156" xlink:href="#DejaVuSans-54"/>
      </g>
     </g>
    </g>
    <g id="ytick_8">
     <g id="line2d_16">
      <g>
       <use style="stroke:#000000;stroke-width:0.8;" x="45" xlink:href="#m5b1f17829c" y="55.838471"/>
      </g>
     </g>
     <g id="text_17">
      <!-- 0.7 -->
      <g transform="translate(22.096875 59.63769)scale(0.1 -0.1)">
       <use xlink:href="#DejaVuSans-48"/>
       <use x="63.623047" xlink:href="#DejaVuSans-46"/>
       <use x="95.410156" xlink:href="#DejaVuSans-55"/>
      </g>
     </g>
    </g>
    <g id="text_18">
     <!-- accuracy -->
     <g transform="translate(16.017187 167.999375)rotate(-90)scale(0.1 -0.1)">
      <defs>
       <path d="M 34.28125 27.484375 
Q 23.390625 27.484375 19.1875 25 
Q 14.984375 22.515625 14.984375 16.5 
Q 14.984375 11.71875 18.140625 8.90625 
Q 21.296875 6.109375 26.703125 6.109375 
Q 34.1875 6.109375 38.703125 11.40625 
Q 43.21875 16.703125 43.21875 25.484375 
L 43.21875 27.484375 
z
M 52.203125 31.203125 
L 52.203125 0 
L 43.21875 0 
L 43.21875 8.296875 
Q 40.140625 3.328125 35.546875 0.953125 
Q 30.953125 -1.421875 24.3125 -1.421875 
Q 15.921875 -1.421875 10.953125 3.296875 
Q 6 8.015625 6 15.921875 
Q 6 25.140625 12.171875 29.828125 
Q 18.359375 34.515625 30.609375 34.515625 
L 43.21875 34.515625 
L 43.21875 35.40625 
Q 43.21875 41.609375 39.140625 45 
Q 35.0625 48.390625 27.6875 48.390625 
Q 23 48.390625 18.546875 47.265625 
Q 14.109375 46.140625 10.015625 43.890625 
L 10.015625 52.203125 
Q 14.9375 54.109375 19.578125 55.046875 
Q 24.21875 56 28.609375 56 
Q 40.484375 56 46.34375 49.84375 
Q 52.203125 43.703125 52.203125 31.203125 
z
" id="DejaVuSans-97"/>
       <path d="M 8.5 21.578125 
L 8.5 54.6875 
L 17.484375 54.6875 
L 17.484375 21.921875 
Q 17.484375 14.15625 20.5 10.265625 
Q 23.53125 6.390625 29.59375 6.390625 
Q 36.859375 6.390625 41.078125 11.03125 
Q 45.3125 15.671875 45.3125 23.6875 
L 45.3125 54.6875 
L 54.296875 54.6875 
L 54.296875 0 
L 45.3125 0 
L 45.3125 8.40625 
Q 42.046875 3.421875 37.71875 1 
Q 33.40625 -1.421875 27.6875 -1.421875 
Q 18.265625 -1.421875 13.375 4.4375 
Q 8.5 10.296875 8.5 21.578125 
z
M 31.109375 56 
z
" id="DejaVuSans-117"/>
       <path d="M 41.109375 46.296875 
Q 39.59375 47.171875 37.8125 47.578125 
Q 36.03125 48 33.890625 48 
Q 26.265625 48 22.1875 43.046875 
Q 18.109375 38.09375 18.109375 28.8125 
L 18.109375 0 
L 9.078125 0 
L 9.078125 54.6875 
L 18.109375 54.6875 
L 18.109375 46.1875 
Q 20.953125 51.171875 25.484375 53.578125 
Q 30.03125 56 36.53125 56 
Q 37.453125 56 38.578125 55.875 
Q 39.703125 55.765625 41.0625 55.515625 
z
" id="DejaVuSans-114"/>
       <path d="M 32.171875 -5.078125 
Q 28.375 -14.84375 24.75 -17.8125 
Q 21.140625 -20.796875 15.09375 -20.796875 
L 7.90625 -20.796875 
L 7.90625 -13.28125 
L 13.1875 -13.28125 
Q 16.890625 -13.28125 18.9375 -11.515625 
Q 21 -9.765625 23.484375 -3.21875 
L 25.09375 0.875 
L 2.984375 54.6875 
L 12.5 54.6875 
L 29.59375 11.921875 
L 46.6875 54.6875 
L 56.203125 54.6875 
z
" id="DejaVuSans-121"/>
      </defs>
      <use xlink:href="#DejaVuSans-97"/>
      <use x="61.279297" xlink:href="#DejaVuSans-99"/>
      <use x="116.259766" xlink:href="#DejaVuSans-99"/>
      <use x="171.240234" xlink:href="#DejaVuSans-117"/>
      <use x="234.619141" xlink:href="#DejaVuSans-114"/>
      <use x="275.732422" xlink:href="#DejaVuSans-97"/>
      <use x="337.011719" xlink:href="#DejaVuSans-99"/>
      <use x="391.992188" xlink:href="#DejaVuSans-121"/>
     </g>
    </g>
   </g>
   <g id="line2d_17">
    <path clip-path="url(#p5cefbc6745)" d="M 57.681818 243.405989 
L 58.044674 243.268415 
L 58.40753 241.067242 
L 59.133242 177.013086 
L 59.496098 245.41456 
L 59.858954 151.672073 
L 60.22181 152.084793 
L 60.584666 187.606234 
L 60.947522 152.717631 
L 61.310378 159.596299 
L 62.036091 125.588164 
L 62.398947 121.708596 
L 62.761803 116.095603 
L 63.124659 86.269698 
L 63.487515 221.146619 
L 63.850371 92.790676 
L 64.213227 134.860609 
L 64.576083 86.902536 
L 64.938939 102.503355 
L 65.301795 161.769958 
L 65.664651 121.983742 
L 66.027507 193.686977 
L 66.390363 96.312554 
L 66.753219 89.87412 
L 67.116075 89.709032 
L 67.478931 84.618818 
L 68.204643 81.56469 
L 68.567499 82.280071 
L 68.930355 82.39013 
L 69.293211 80.299015 
L 69.656067 82.500188 
L 70.018923 78.097841 
L 70.381779 152.167337 
L 70.744635 120.002686 
L 71.107491 70.173615 
L 71.470347 67.229546 
L 71.833203 246.24 
L 72.196059 233.940942 
L 72.558915 79.996353 
L 72.921771 82.252556 
L 73.284627 81.234513 
L 73.647483 242.305402 
L 74.010339 235.619337 
L 74.373195 70.311189 
L 74.736052 70.283674 
L 75.098908 73.200229 
L 75.461764 74.548448 
L 75.82462 141.133954 
L 76.187476 124.26746 
L 76.550332 90.396899 
L 76.913188 91.112281 
L 77.276044 88.966136 
L 77.6389 89.764062 
L 78.001756 239.251273 
L 78.727468 208.572414 
L 79.45318 174.509251 
L 79.816036 168.621111 
L 80.178892 153.763188 
L 80.541748 153.130351 
L 80.904604 157.037434 
L 81.26746 136.86918 
L 81.630316 160.366709 
L 81.993172 132.549376 
L 82.356028 128.339631 
L 82.718884 141.436615 
L 83.08174 134.585462 
L 83.444596 129.880453 
L 83.807452 140.253484 
L 84.170308 141.711762 
L 84.533164 136.04374 
L 84.89602 116.370749 
L 85.258876 78.235414 
L 85.621732 71.879525 
L 85.984588 91.772633 
L 86.347444 79.583633 
L 86.7103 82.39013 
L 87.073156 70.61385 
L 87.436012 86.462301 
L 88.161725 94.881791 
L 88.524581 75.26383 
L 88.887437 124.927812 
L 89.250293 115.847971 
L 89.613149 131.971568 
L 89.976005 73.530405 
L 90.338861 69.953498 
L 90.701717 100.35721 
L 91.064573 104.099206 
L 91.427429 78.2079 
L 91.790285 74.328331 
L 92.153141 71.796981 
L 92.515997 68.0825 
L 92.878853 72.980112 
L 93.241709 70.888997 
L 93.604565 70.393733 
L 93.967421 70.723909 
L 94.330277 68.440191 
L 94.693133 69.155573 
L 95.055989 68.55025 
L 95.418845 74.85111 
L 95.781701 71.301717 
L 96.144557 78.510561 
L 96.507413 76.474475 
L 96.870269 80.2715 
L 97.233125 74.906139 
L 97.595981 80.849308 
L 97.958837 73.915611 
L 98.321693 72.209701 
L 98.684549 80.546647 
L 99.047405 76.03424 
L 99.410261 76.226843 
L 99.773117 78.730678 
L 100.135973 123.001785 
L 100.498829 99.99952 
L 100.861686 59.415379 
L 101.224542 54.215106 
L 101.587398 57.571896 
L 101.950254 54.765399 
L 102.31311 77.162342 
L 102.675966 78.235414 
L 103.038822 60.763598 
L 103.401678 54.077532 
L 103.764534 96.505156 
L 104.12739 83.848407 
L 104.490246 178.526393 
L 104.853102 114.472237 
L 105.215958 78.483046 
L 105.578814 68.027471 
L 105.94167 65.936356 
L 106.304526 61.478979 
L 106.667382 60.240819 
L 107.030238 144.490744 
L 107.393094 129.715365 
L 107.75595 59.250291 
L 108.118806 59.002659 
L 108.481662 60.433422 
L 108.844518 59.085203 
L 109.207374 59.415379 
L 109.57023 62.111817 
L 109.933086 62.909742 
L 110.295942 63.377491 
L 110.658798 64.643166 
L 111.021654 66.954399 
L 111.38451 63.129859 
L 111.747366 64.560622 
L 112.473078 64.505593 
L 112.835934 64.450564 
L 113.19879 64.588137 
L 113.561647 68.302618 
L 113.924503 64.478078 
L 114.287359 68.192559 
L 114.650215 65.19346 
L 115.013071 65.908841 
L 115.375927 64.863284 
L 115.738783 181.167801 
L 116.101639 148.810547 
L 116.464495 60.075731 
L 116.827351 59.222776 
L 117.553063 52.756828 
L 117.915919 119.232275 
L 118.641631 56.498824 
L 119.004487 53.499724 
L 119.367343 184.552106 
L 120.093055 58.094674 
L 120.455911 54.022503 
L 120.818767 73.062656 
L 121.181623 83.875922 
L 121.544479 77.465003 
L 121.907335 56.718941 
L 122.270191 56.251191 
L 122.633047 120.222803 
L 122.995903 100.054549 
L 123.358759 98.953962 
L 123.721615 93.313454 
L 124.084471 95.101908 
L 124.447327 90.094238 
L 124.810183 101.898032 
L 125.173039 94.303983 
L 125.535895 89.681518 
L 125.898751 88.580931 
L 126.261607 97.46817 
L 126.624464 96.697759 
L 126.98732 91.002222 
L 127.350176 95.542143 
L 127.713032 89.984179 
L 128.075888 90.204296 
L 128.438744 91.057251 
L 128.8016 85.196626 
L 129.164456 97.88089 
L 129.527312 94.11138 
L 129.890168 113.674311 
L 130.253024 100.907504 
L 130.61588 64.36802 
L 130.978736 57.957101 
L 131.341592 62.992286 
L 131.704448 56.058589 
L 132.067304 58.644968 
L 132.43016 52.729313 
L 132.793016 58.8926 
L 133.155872 52.013932 
L 133.881584 82.775335 
L 134.24444 63.239918 
L 134.607296 54.050018 
L 134.970152 60.928686 
L 135.333008 53.334636 
L 135.695864 138.410001 
L 136.05872 119.012158 
L 136.421576 69.485749 
L 136.784432 61.451464 
L 137.147288 92.653102 
L 137.510144 52.674284 
L 137.873 51.243521 
L 138.235856 50.390566 
L 138.598712 50.390566 
L 138.961568 51.078433 
L 139.687281 51.491153 
L 140.050137 53.307122 
L 140.412993 52.013932 
L 140.775849 51.903873 
L 141.138705 52.894402 
L 141.501561 54.572797 
L 141.864417 53.692327 
L 142.227273 53.41718 
L 142.590129 55.178119 
L 142.952985 54.132562 
L 143.315841 55.453266 
L 143.678697 56.223677 
L 144.041553 55.040546 
L 144.404409 58.177219 
L 144.767265 112.13349 
L 145.130121 104.53944 
L 145.492977 50.225478 
L 145.855833 48.767201 
L 146.218689 52.921916 
L 146.581545 54.022503 
L 146.944401 170.932343 
L 147.307257 139.868279 
L 147.670113 51.35358 
L 148.032969 49.400038 
L 148.395825 79.776236 
L 148.758681 71.989584 
L 149.121537 51.160977 
L 149.484393 49.977846 
L 149.847249 103.521398 
L 150.572961 51.35358 
L 150.935817 48.657142 
L 151.298673 63.90027 
L 151.661529 61.726611 
L 152.024385 51.958903 
L 152.387242 49.537612 
L 152.750098 48.82223 
L 153.112954 48.492054 
L 153.47581 48.492054 
L 153.838666 48.877259 
L 154.564378 48.464539 
L 154.927234 48.051819 
L 156.015802 48.299451 
L 156.378658 47.446497 
L 156.741514 48.492054 
L 157.10437 48.189393 
L 157.467226 48.161878 
L 157.830082 48.574598 
L 158.192938 48.40951 
L 158.555794 48.712171 
L 159.281506 48.051819 
L 159.644362 152.277396 
L 160.007218 124.515092 
L 160.370074 47.914246 
L 160.73293 47.859217 
L 161.095786 62.497022 
L 161.458642 67.504692 
L 161.821498 103.631456 
L 162.184354 85.939522 
L 162.54721 49.482582 
L 162.910066 48.794715 
L 163.272922 49.097377 
L 163.635778 50.913345 
L 163.998634 90.34187 
L 164.36149 76.887195 
L 164.724346 129.055013 
L 165.087202 106.107777 
L 165.450059 48.161878 
L 165.812915 48.134363 
L 166.175771 49.482582 
L 166.538627 54.875458 
L 166.901483 48.767201 
L 167.264339 48.326966 
L 167.627195 48.739686 
L 168.352907 48.794715 
L 168.715763 48.767201 
L 169.078619 48.959803 
L 169.441475 48.492054 
L 169.804331 48.794715 
L 170.167187 48.492054 
L 170.530043 48.657142 
L 170.892899 48.134363 
L 171.255755 48.767201 
L 171.618611 48.354481 
L 171.981467 49.262465 
L 172.707179 48.216907 
L 173.070035 48.106849 
L 173.432891 48.547083 
L 173.795747 47.914246 
L 174.158603 47.969275 
L 174.521459 47.58407 
L 174.884315 47.914246 
L 175.247171 186.890853 
L 175.610027 156.267023 
L 175.972883 48.079334 
L 176.335739 48.134363 
L 176.698595 77.465003 
L 177.061451 70.944026 
L 177.424307 117.746483 
L 177.787163 94.551615 
L 178.15002 52.619255 
L 178.512876 54.050018 
L 178.875732 48.767201 
L 179.238588 49.262465 
L 179.601444 147.242211 
L 179.9643 112.381122 
L 180.327156 96.890362 
L 180.690012 92.4605 
L 181.052868 69.293146 
L 181.415724 71.769466 
L 181.77858 58.8926 
L 182.141436 65.716239 
L 182.504292 64.808254 
L 182.867148 67.25706 
L 183.230004 65.083401 
L 183.59286 63.927785 
L 183.955716 64.533108 
L 184.681428 66.486649 
L 185.40714 62.24939 
L 185.769996 68.632794 
L 186.132852 63.927785 
L 186.495708 64.533108 
L 186.858564 65.551151 
L 187.22142 63.432521 
L 187.584276 62.689625 
L 187.947132 62.827198 
L 188.309988 63.652638 
L 188.672844 64.065358 
L 189.0357 63.48755 
L 189.398556 50.47311 
L 189.761412 48.189393 
L 190.124268 165.924673 
L 190.84998 84.948994 
L 191.212837 80.546647 
L 191.575693 50.142934 
L 191.938549 48.134363 
L 192.301405 159.431211 
L 192.664261 115.215133 
L 193.027117 50.197964 
L 193.389973 48.739686 
L 193.752829 57.434322 
L 194.115685 59.910643 
L 194.478541 50.693228 
L 194.841397 48.024305 
L 195.204253 124.460063 
L 195.567109 94.991849 
L 195.929965 52.921916 
L 196.292821 50.913345 
L 196.655677 52.509196 
L 197.018533 52.096476 
L 197.381389 49.785244 
L 197.744245 50.858316 
L 198.107101 51.546183 
L 198.469957 51.958903 
L 198.832813 50.830801 
L 199.195669 52.17902 
L 199.558525 53.031975 
L 199.921381 51.821329 
L 200.647093 51.408609 
L 201.009949 50.225478 
L 201.372805 52.316593 
L 201.735661 52.316593 
L 202.098517 51.7663 
L 202.461373 51.601212 
L 202.824229 53.362151 
L 203.187085 52.234049 
L 203.549941 52.866887 
L 203.912798 54.847943 
L 204.275654 137.612076 
L 204.63851 110.785271 
L 205.001366 48.519569 
L 205.364222 47.721643 
L 205.727078 66.899369 
L 206.089934 68.467706 
L 206.45279 49.895302 
L 206.815646 48.602113 
L 207.178502 108.198892 
L 207.541358 82.665276 
L 207.904214 79.638662 
L 208.26707 72.512362 
L 208.629926 54.875458 
L 208.992782 57.406808 
L 209.355638 192.008582 
L 210.444206 95.872319 
L 210.807062 49.097377 
L 211.169918 48.051819 
L 211.532774 62.276905 
L 211.89563 71.191658 
L 212.258486 62.552051 
L 212.621342 65.716239 
L 212.984198 64.230446 
L 213.347054 63.680153 
L 213.70991 64.175417 
L 214.072766 61.396435 
L 214.435622 62.827198 
L 214.798478 64.890798 
L 215.161334 62.24939 
L 215.52419 63.9553 
L 215.887046 61.891699 
L 216.249902 62.386963 
L 216.612758 63.817726 
L 216.975615 62.221875 
L 217.338471 63.102345 
L 217.701327 61.066259 
L 218.064183 62.689625 
L 218.427039 62.634595 
L 218.789895 61.946729 
L 219.152751 107.648598 
L 219.515607 95.129423 
L 219.878463 49.620156 
L 220.241319 48.739686 
L 220.604175 49.64767 
L 220.967031 48.657142 
L 221.329887 59.938157 
L 221.692743 60.626024 
L 222.055599 73.612949 
L 222.418455 67.559722 
L 222.781311 53.00446 
L 223.144167 52.454167 
L 223.507023 49.207436 
L 223.869879 48.547083 
L 224.232735 183.093828 
L 224.595591 149.718531 
L 224.958447 96.450127 
L 225.321303 87.507859 
L 225.684159 119.947657 
L 226.047015 102.998619 
L 226.409871 60.736083 
L 226.772727 61.066259 
L 227.135583 57.516866 
L 227.498439 58.589939 
L 227.861295 58.47988 
L 228.224151 57.59941 
L 228.587007 59.525437 
L 228.949863 59.607981 
L 229.312719 58.672483 
L 230.038432 60.928686 
L 230.401288 59.828099 
L 230.764144 60.681054 
L 231.127 58.837571 
L 231.489856 61.313891 
L 231.852712 59.938157 
L 232.215568 61.616552 
L 232.578424 60.928686 
L 233.304136 57.957101 
L 233.666992 62.001758 
L 234.029848 142.784834 
L 234.75556 50.032876 
L 235.118416 48.877259 
L 235.481272 61.121288 
L 235.844128 60.020702 
L 236.206984 73.612949 
L 236.56984 72.649936 
L 236.932696 205.875977 
L 237.295552 163.228235 
L 237.658408 50.087905 
L 238.021264 48.932289 
L 238.38412 107.180849 
L 238.746976 83.903437 
L 239.109832 50.693228 
L 239.472688 49.840273 
L 239.835544 52.289079 
L 240.1984 50.005361 
L 240.561256 175.279662 
L 240.924112 128.587264 
L 241.286968 51.573697 
L 241.649824 48.574598 
L 242.01268 49.427553 
L 242.375536 47.198864 
L 242.738393 48.271937 
L 243.464105 46.75863 
L 243.826961 46.538512 
L 244.189817 46.868688 
L 244.552673 46.593542 
L 244.915529 46.75863 
L 245.641241 46.235851 
L 246.004097 46.34591 
L 246.366953 46.676086 
L 246.729809 46.098278 
L 247.455521 45.87816 
L 248.181233 45.272837 
L 248.544089 50.610684 
L 248.906945 91.745118 
L 249.269801 45.410411 
L 249.632657 44.64 
L 249.995513 44.887632 
L 250.358369 69.760895 
L 250.721225 72.374789 
L 251.084081 48.437025 
L 251.446937 52.041447 
L 251.809793 139.840764 
L 252.172649 107.89623 
L 252.535505 107.53854 
L 252.898361 93.010793 
L 253.261217 45.520469 
L 253.624073 44.722544 
L 253.986929 188.266587 
L 254.349785 150.599001 
L 254.712641 46.483483 
L 255.075497 46.098278 
L 255.438353 103.30128 
L 255.80121 90.75459 
L 256.164066 70.036042 
L 256.526922 75.896667 
L 256.889778 66.926884 
L 257.252634 66.128959 
L 257.61549 71.824496 
L 258.341202 63.405006 
L 258.704058 62.882227 
L 259.066914 63.9553 
L 259.42977 64.257961 
L 259.792626 62.964771 
L 260.155482 62.744654 
L 260.518338 64.863284 
L 260.881194 62.827198 
L 261.24405 66.321561 
L 261.606906 63.322462 
L 261.969762 65.276004 
L 262.332618 64.065358 
L 262.695474 59.30532 
L 263.05833 60.736083 
L 263.421186 64.065358 
L 263.784042 59.965672 
L 264.146898 235.839454 
L 264.509754 165.429409 
L 264.87261 199.987837 
L 265.235466 115.270162 
L 265.598322 63.157374 
L 265.961178 49.840273 
L 266.324034 49.28998 
L 266.68689 50.197964 
L 267.049746 49.482582 
L 267.412602 134.282801 
L 267.775458 109.437052 
L 268.138314 96.395098 
L 268.501171 88.250755 
L 268.864027 86.544845 
L 269.226883 71.741952 
L 269.589739 50.52814 
L 269.952595 48.932289 
L 270.315451 52.371623 
L 270.678307 51.656241 
L 271.041163 145.866477 
L 271.404019 116.976072 
L 271.766875 106.437953 
L 272.129731 107.235878 
L 272.492587 100.35721 
L 272.855443 99.559285 
L 273.218299 108.886759 
L 273.581155 110.42758 
L 273.944011 103.30128 
L 274.306867 113.976973 
L 274.669723 95.514628 
L 275.032579 99.174079 
L 275.395435 92.020265 
L 275.758291 94.414041 
L 276.121147 93.863748 
L 276.484003 87.645432 
L 276.846859 94.606644 
L 277.209715 90.837134 
L 277.572571 93.423513 
L 277.935427 93.533572 
L 278.298283 98.513727 
L 278.661139 90.864649 
L 279.023995 69.650837 
L 279.386851 58.232248 
L 279.749707 69.238117 
L 280.112563 56.058589 
L 280.475419 64.835769 
L 280.838275 51.050919 
L 281.201131 76.171814 
L 281.563988 52.426652 
L 281.926844 49.537612 
L 282.2897 60.488451 
L 282.652556 65.165945 
L 283.015412 116.425779 
L 283.378268 103.438854 
L 283.741124 54.600311 
L 284.10398 51.160977 
L 284.466836 52.234049 
L 284.829692 48.547083 
L 285.192548 55.53581 
L 285.555404 56.911544 
L 285.91826 55.233149 
L 286.281116 56.829 
L 286.643972 57.489352 
L 287.006828 57.819528 
L 287.73254 60.020702 
L 288.095396 65.386063 
L 288.458252 67.367119 
L 288.821108 62.992286 
L 289.183964 63.047315 
L 289.909676 66.486649 
L 290.272532 66.981913 
L 290.635388 70.008527 
L 290.998244 66.459135 
L 291.3611 67.862383 
L 291.723956 68.0825 
L 292.086812 66.266532 
L 292.449668 69.815925 
L 292.812524 67.587236 
L 293.17538 50.88583 
L 293.538236 47.721643 
L 293.901092 148.370313 
L 294.263948 116.921043 
L 294.626805 130.238144 
L 294.989661 106.603041 
L 295.352517 52.426652 
L 295.715373 48.271937 
L 296.078229 57.709469 
L 296.441085 54.820429 
L 296.803941 56.471309 
L 297.166797 47.721643 
L 297.529653 68.90794 
L 297.892509 72.26473 
L 298.255365 74.548448 
L 298.618221 47.58407 
L 298.981077 47.446497 
L 299.343933 92.240382 
L 299.706789 83.820893 
L 300.069645 63.762697 
L 300.432501 65.551151 
L 300.795357 64.147902 
L 301.158213 66.459135 
L 301.521069 65.028372 
L 301.883925 69.870954 
L 302.246781 67.999956 
L 302.609637 63.625124 
L 303.335349 77.602577 
L 303.698205 71.02657 
L 304.061061 67.091972 
L 304.423917 68.247588 
L 304.786773 65.413577 
L 305.149629 69.293146 
L 305.512485 71.164144 
L 305.875341 72.154672 
L 306.238197 69.78841 
L 306.601053 66.156473 
L 306.963909 65.991385 
L 307.326766 67.367119 
L 307.689622 64.808254 
L 308.052478 51.078433 
L 308.415334 48.326966 
L 308.77819 161.577355 
L 309.141046 108.749185 
L 309.503902 72.31976 
L 309.866758 74.575963 
L 310.229614 55.343207 
L 310.59247 49.482582 
L 310.955326 122.286404 
L 311.318182 98.568757 
L 311.318182 98.568757 
" style="fill:none;stroke:#ff0000;stroke-linecap:square;stroke-width:1.5;"/>
   </g>
   <g id="patch_3">
    <path d="M 45 256.32 
L 45 34.56 
" style="fill:none;stroke:#000000;stroke-linecap:square;stroke-linejoin:miter;stroke-width:0.8;"/>
   </g>
   <g id="patch_4">
    <path d="M 324 256.32 
L 324 34.56 
" style="fill:none;stroke:#000000;stroke-linecap:square;stroke-linejoin:miter;stroke-width:0.8;"/>
   </g>
   <g id="patch_5">
    <path d="M 45 256.32 
L 324 256.32 
" style="fill:none;stroke:#000000;stroke-linecap:square;stroke-linejoin:miter;stroke-width:0.8;"/>
   </g>
   <g id="patch_6">
    <path d="M 45 34.56 
L 324 34.56 
" style="fill:none;stroke:#000000;stroke-linecap:square;stroke-linejoin:miter;stroke-width:0.8;"/>
   </g>
   <g id="text_19">
    <!-- acc vs epochs (cifar100) -->
    <g transform="translate(111.072187 28.56)scale(0.12 -0.12)">
     <defs>
      <path id="DejaVuSans-32"/>
      <path d="M 2.984375 54.6875 
L 12.5 54.6875 
L 29.59375 8.796875 
L 46.6875 54.6875 
L 56.203125 54.6875 
L 35.6875 0 
L 23.484375 0 
z
" id="DejaVuSans-118"/>
      <path d="M 31 75.875 
Q 24.46875 64.65625 21.28125 53.65625 
Q 18.109375 42.671875 18.109375 31.390625 
Q 18.109375 20.125 21.3125 9.0625 
Q 24.515625 -2 31 -13.1875 
L 23.1875 -13.1875 
Q 15.875 -1.703125 12.234375 9.375 
Q 8.59375 20.453125 8.59375 31.390625 
Q 8.59375 42.28125 12.203125 53.3125 
Q 15.828125 64.359375 23.1875 75.875 
z
" id="DejaVuSans-40"/>
      <path d="M 9.421875 54.6875 
L 18.40625 54.6875 
L 18.40625 0 
L 9.421875 0 
z
M 9.421875 75.984375 
L 18.40625 75.984375 
L 18.40625 64.59375 
L 9.421875 64.59375 
z
" id="DejaVuSans-105"/>
      <path d="M 37.109375 75.984375 
L 37.109375 68.5 
L 28.515625 68.5 
Q 23.6875 68.5 21.796875 66.546875 
Q 19.921875 64.59375 19.921875 59.515625 
L 19.921875 54.6875 
L 34.71875 54.6875 
L 34.71875 47.703125 
L 19.921875 47.703125 
L 19.921875 0 
L 10.890625 0 
L 10.890625 47.703125 
L 2.296875 47.703125 
L 2.296875 54.6875 
L 10.890625 54.6875 
L 10.890625 58.5 
Q 10.890625 67.625 15.140625 71.796875 
Q 19.390625 75.984375 28.609375 75.984375 
z
" id="DejaVuSans-102"/>
      <path d="M 8.015625 75.875 
L 15.828125 75.875 
Q 23.140625 64.359375 26.78125 53.3125 
Q 30.421875 42.28125 30.421875 31.390625 
Q 30.421875 20.453125 26.78125 9.375 
Q 23.140625 -1.703125 15.828125 -13.1875 
L 8.015625 -13.1875 
Q 14.5 -2 17.703125 9.0625 
Q 20.90625 20.125 20.90625 31.390625 
Q 20.90625 42.671875 17.703125 53.65625 
Q 14.5 64.65625 8.015625 75.875 
z
" id="DejaVuSans-41"/>
     </defs>
     <use xlink:href="#DejaVuSans-97"/>
     <use x="61.279297" xlink:href="#DejaVuSans-99"/>
     <use x="116.259766" xlink:href="#DejaVuSans-99"/>
     <use x="171.240234" xlink:href="#DejaVuSans-32"/>
     <use x="203.027344" xlink:href="#DejaVuSans-118"/>
     <use x="262.207031" xlink:href="#DejaVuSans-115"/>
     <use x="314.306641" xlink:href="#DejaVuSans-32"/>
     <use x="346.09375" xlink:href="#DejaVuSans-101"/>
     <use x="407.617188" xlink:href="#DejaVuSans-112"/>
     <use x="471.09375" xlink:href="#DejaVuSans-111"/>
     <use x="532.275391" xlink:href="#DejaVuSans-99"/>
     <use x="587.255859" xlink:href="#DejaVuSans-104"/>
     <use x="650.634766" xlink:href="#DejaVuSans-115"/>
     <use x="702.734375" xlink:href="#DejaVuSans-32"/>
     <use x="734.521484" xlink:href="#DejaVuSans-40"/>
     <use x="773.535156" xlink:href="#DejaVuSans-99"/>
     <use x="828.515625" xlink:href="#DejaVuSans-105"/>
     <use x="856.298828" xlink:href="#DejaVuSans-102"/>
     <use x="891.503906" xlink:href="#DejaVuSans-97"/>
     <use x="952.783203" xlink:href="#DejaVuSans-114"/>
     <use x="993.896484" xlink:href="#DejaVuSans-49"/>
     <use x="1057.519531" xlink:href="#DejaVuSans-48"/>
     <use x="1121.142578" xlink:href="#DejaVuSans-48"/>
     <use x="1184.765625" xlink:href="#DejaVuSans-41"/>
    </g>
   </g>
  </g>
 </g>
 <defs>
  <clipPath id="p5cefbc6745">
   <rect height="221.76" width="279" x="45" y="34.56"/>
  </clipPath>
 </defs>
</svg>
