<?xml version="1.0" encoding="utf-8" standalone="no"?>
<!DOCTYPE svg PUBLIC "-//W3C//DTD SVG 1.1//EN"
  "http://www.w3.org/Graphics/SVG/1.1/DTD/svg11.dtd">
<!-- Created with matplotlib (https://matplotlib.org/) -->
<svg height="288pt" version="1.1" viewBox="0 0 360 288" width="360pt" xmlns="http://www.w3.org/2000/svg" xmlns:xlink="http://www.w3.org/1999/xlink">
 <metadata>
  <rdf:RDF xmlns:cc="http://creativecommons.org/ns#" xmlns:dc="http://purl.org/dc/elements/1.1/" xmlns:rdf="http://www.w3.org/1999/02/22-rdf-syntax-ns#">
   <cc:Work>
    <dc:type rdf:resource="http://purl.org/dc/dcmitype/StillImage"/>
    <dc:date>2022-04-29T12:48:12.634953</dc:date>
    <dc:format>image/svg+xml</dc:format>
    <dc:creator>
     <cc:Agent>
      <dc:title>Matplotlib v3.3.3, https://matplotlib.org/</dc:title>
     </cc:Agent>
    </dc:creator>
   </cc:Work>
  </rdf:RDF>
 </metadata>
 <defs>
  <style type="text/css">*{stroke-linecap:butt;stroke-linejoin:round;}</style>
 </defs>
 <g id="figure_1">
  <g id="patch_1">
   <path d="M 0 288 
L 360 288 
L 360 0 
L 0 0 
z
" style="fill:#ffffff;"/>
  </g>
  <g id="axes_1">
   <g id="patch_2">
    <path d="M 45 256.32 
L 324 256.32 
L 324 34.56 
L 45 34.56 
z
" style="fill:#ffffff;"/>
   </g>
   <g id="matplotlib.axis_1">
    <g id="xtick_1">
     <g id="line2d_1">
      <defs>
       <path d="M 0 0 
L 0 3.5 
" id="m71b840e9b4" style="stroke:#000000;stroke-width:0.8;"/>
      </defs>
      <g>
       <use style="stroke:#000000;stroke-width:0.8;" x="57.681818" xlink:href="#m71b840e9b4" y="256.32"/>
      </g>
     </g>
     <g id="text_1">
      <!-- 0 -->
      <g transform="translate(54.500568 270.918437)scale(0.1 -0.1)">
       <defs>
        <path d="M 31.78125 66.40625 
Q 24.171875 66.40625 20.328125 58.90625 
Q 16.5 51.421875 16.5 36.375 
Q 16.5 21.390625 20.328125 13.890625 
Q 24.171875 6.390625 31.78125 6.390625 
Q 39.453125 6.390625 43.28125 13.890625 
Q 47.125 21.390625 47.125 36.375 
Q 47.125 51.421875 43.28125 58.90625 
Q 39.453125 66.40625 31.78125 66.40625 
z
M 31.78125 74.21875 
Q 44.046875 74.21875 50.515625 64.515625 
Q 56.984375 54.828125 56.984375 36.375 
Q 56.984375 17.96875 50.515625 8.265625 
Q 44.046875 -1.421875 31.78125 -1.421875 
Q 19.53125 -1.421875 13.0625 8.265625 
Q 6.59375 17.96875 6.59375 36.375 
Q 6.59375 54.828125 13.0625 64.515625 
Q 19.53125 74.21875 31.78125 74.21875 
z
" id="DejaVuSans-48"/>
       </defs>
       <use xlink:href="#DejaVuSans-48"/>
      </g>
     </g>
    </g>
    <g id="xtick_2">
     <g id="line2d_2">
      <g>
       <use style="stroke:#000000;stroke-width:0.8;" x="104.479404" xlink:href="#m71b840e9b4" y="256.32"/>
      </g>
     </g>
     <g id="text_2">
      <!-- 50000 -->
      <g transform="translate(88.573154 270.918437)scale(0.1 -0.1)">
       <defs>
        <path d="M 10.796875 72.90625 
L 49.515625 72.90625 
L 49.515625 64.59375 
L 19.828125 64.59375 
L 19.828125 46.734375 
Q 21.96875 47.46875 24.109375 47.828125 
Q 26.265625 48.1875 28.421875 48.1875 
Q 40.625 48.1875 47.75 41.5 
Q 54.890625 34.8125 54.890625 23.390625 
Q 54.890625 11.625 47.5625 5.09375 
Q 40.234375 -1.421875 26.90625 -1.421875 
Q 22.3125 -1.421875 17.546875 -0.640625 
Q 12.796875 0.140625 7.71875 1.703125 
L 7.71875 11.625 
Q 12.109375 9.234375 16.796875 8.0625 
Q 21.484375 6.890625 26.703125 6.890625 
Q 35.15625 6.890625 40.078125 11.328125 
Q 45.015625 15.765625 45.015625 23.390625 
Q 45.015625 31 40.078125 35.4375 
Q 35.15625 39.890625 26.703125 39.890625 
Q 22.75 39.890625 18.8125 39.015625 
Q 14.890625 38.140625 10.796875 36.28125 
z
" id="DejaVuSans-53"/>
       </defs>
       <use xlink:href="#DejaVuSans-53"/>
       <use x="63.623047" xlink:href="#DejaVuSans-48"/>
       <use x="127.246094" xlink:href="#DejaVuSans-48"/>
       <use x="190.869141" xlink:href="#DejaVuSans-48"/>
       <use x="254.492188" xlink:href="#DejaVuSans-48"/>
      </g>
     </g>
    </g>
    <g id="xtick_3">
     <g id="line2d_3">
      <g>
       <use style="stroke:#000000;stroke-width:0.8;" x="151.27699" xlink:href="#m71b840e9b4" y="256.32"/>
      </g>
     </g>
     <g id="text_3">
      <!-- 100000 -->
      <g transform="translate(132.18949 270.918437)scale(0.1 -0.1)">
       <defs>
        <path d="M 12.40625 8.296875 
L 28.515625 8.296875 
L 28.515625 63.921875 
L 10.984375 60.40625 
L 10.984375 69.390625 
L 28.421875 72.90625 
L 38.28125 72.90625 
L 38.28125 8.296875 
L 54.390625 8.296875 
L 54.390625 0 
L 12.40625 0 
z
" id="DejaVuSans-49"/>
       </defs>
       <use xlink:href="#DejaVuSans-49"/>
       <use x="63.623047" xlink:href="#DejaVuSans-48"/>
       <use x="127.246094" xlink:href="#DejaVuSans-48"/>
       <use x="190.869141" xlink:href="#DejaVuSans-48"/>
       <use x="254.492188" xlink:href="#DejaVuSans-48"/>
       <use x="318.115234" xlink:href="#DejaVuSans-48"/>
      </g>
     </g>
    </g>
    <g id="xtick_4">
     <g id="line2d_4">
      <g>
       <use style="stroke:#000000;stroke-width:0.8;" x="198.074576" xlink:href="#m71b840e9b4" y="256.32"/>
      </g>
     </g>
     <g id="text_4">
      <!-- 150000 -->
      <g transform="translate(178.987076 270.918437)scale(0.1 -0.1)">
       <use xlink:href="#DejaVuSans-49"/>
       <use x="63.623047" xlink:href="#DejaVuSans-53"/>
       <use x="127.246094" xlink:href="#DejaVuSans-48"/>
       <use x="190.869141" xlink:href="#DejaVuSans-48"/>
       <use x="254.492188" xlink:href="#DejaVuSans-48"/>
       <use x="318.115234" xlink:href="#DejaVuSans-48"/>
      </g>
     </g>
    </g>
    <g id="xtick_5">
     <g id="line2d_5">
      <g>
       <use style="stroke:#000000;stroke-width:0.8;" x="244.872162" xlink:href="#m71b840e9b4" y="256.32"/>
      </g>
     </g>
     <g id="text_5">
      <!-- 200000 -->
      <g transform="translate(225.784662 270.918437)scale(0.1 -0.1)">
       <defs>
        <path d="M 19.1875 8.296875 
L 53.609375 8.296875 
L 53.609375 0 
L 7.328125 0 
L 7.328125 8.296875 
Q 12.9375 14.109375 22.625 23.890625 
Q 32.328125 33.6875 34.8125 36.53125 
Q 39.546875 41.84375 41.421875 45.53125 
Q 43.3125 49.21875 43.3125 52.78125 
Q 43.3125 58.59375 39.234375 62.25 
Q 35.15625 65.921875 28.609375 65.921875 
Q 23.96875 65.921875 18.8125 64.3125 
Q 13.671875 62.703125 7.8125 59.421875 
L 7.8125 69.390625 
Q 13.765625 71.78125 18.9375 73 
Q 24.125 74.21875 28.421875 74.21875 
Q 39.75 74.21875 46.484375 68.546875 
Q 53.21875 62.890625 53.21875 53.421875 
Q 53.21875 48.921875 51.53125 44.890625 
Q 49.859375 40.875 45.40625 35.40625 
Q 44.1875 33.984375 37.640625 27.21875 
Q 31.109375 20.453125 19.1875 8.296875 
z
" id="DejaVuSans-50"/>
       </defs>
       <use xlink:href="#DejaVuSans-50"/>
       <use x="63.623047" xlink:href="#DejaVuSans-48"/>
       <use x="127.246094" xlink:href="#DejaVuSans-48"/>
       <use x="190.869141" xlink:href="#DejaVuSans-48"/>
       <use x="254.492188" xlink:href="#DejaVuSans-48"/>
       <use x="318.115234" xlink:href="#DejaVuSans-48"/>
      </g>
     </g>
    </g>
    <g id="xtick_6">
     <g id="line2d_6">
      <g>
       <use style="stroke:#000000;stroke-width:0.8;" x="291.669747" xlink:href="#m71b840e9b4" y="256.32"/>
      </g>
     </g>
     <g id="text_6">
      <!-- 250000 -->
      <g transform="translate(272.582247 270.918437)scale(0.1 -0.1)">
       <use xlink:href="#DejaVuSans-50"/>
       <use x="63.623047" xlink:href="#DejaVuSans-53"/>
       <use x="127.246094" xlink:href="#DejaVuSans-48"/>
       <use x="190.869141" xlink:href="#DejaVuSans-48"/>
       <use x="254.492188" xlink:href="#DejaVuSans-48"/>
       <use x="318.115234" xlink:href="#DejaVuSans-48"/>
      </g>
     </g>
    </g>
    <g id="text_7">
     <!-- iterations -->
     <g transform="translate(160.772656 284.596563)scale(0.1 -0.1)">
      <defs>
       <path d="M 9.421875 54.6875 
L 18.40625 54.6875 
L 18.40625 0 
L 9.421875 0 
z
M 9.421875 75.984375 
L 18.40625 75.984375 
L 18.40625 64.59375 
L 9.421875 64.59375 
z
" id="DejaVuSans-105"/>
       <path d="M 18.3125 70.21875 
L 18.3125 54.6875 
L 36.8125 54.6875 
L 36.8125 47.703125 
L 18.3125 47.703125 
L 18.3125 18.015625 
Q 18.3125 11.328125 20.140625 9.421875 
Q 21.96875 7.515625 27.59375 7.515625 
L 36.8125 7.515625 
L 36.8125 0 
L 27.59375 0 
Q 17.1875 0 13.234375 3.875 
Q 9.28125 7.765625 9.28125 18.015625 
L 9.28125 47.703125 
L 2.6875 47.703125 
L 2.6875 54.6875 
L 9.28125 54.6875 
L 9.28125 70.21875 
z
" id="DejaVuSans-116"/>
       <path d="M 56.203125 29.59375 
L 56.203125 25.203125 
L 14.890625 25.203125 
Q 15.484375 15.921875 20.484375 11.0625 
Q 25.484375 6.203125 34.421875 6.203125 
Q 39.59375 6.203125 44.453125 7.46875 
Q 49.3125 8.734375 54.109375 11.28125 
L 54.109375 2.78125 
Q 49.265625 0.734375 44.1875 -0.34375 
Q 39.109375 -1.421875 33.890625 -1.421875 
Q 20.796875 -1.421875 13.15625 6.1875 
Q 5.515625 13.8125 5.515625 26.8125 
Q 5.515625 40.234375 12.765625 48.109375 
Q 20.015625 56 32.328125 56 
Q 43.359375 56 49.78125 48.890625 
Q 56.203125 41.796875 56.203125 29.59375 
z
M 47.21875 32.234375 
Q 47.125 39.59375 43.09375 43.984375 
Q 39.0625 48.390625 32.421875 48.390625 
Q 24.90625 48.390625 20.390625 44.140625 
Q 15.875 39.890625 15.1875 32.171875 
z
" id="DejaVuSans-101"/>
       <path d="M 41.109375 46.296875 
Q 39.59375 47.171875 37.8125 47.578125 
Q 36.03125 48 33.890625 48 
Q 26.265625 48 22.1875 43.046875 
Q 18.109375 38.09375 18.109375 28.8125 
L 18.109375 0 
L 9.078125 0 
L 9.078125 54.6875 
L 18.109375 54.6875 
L 18.109375 46.1875 
Q 20.953125 51.171875 25.484375 53.578125 
Q 30.03125 56 36.53125 56 
Q 37.453125 56 38.578125 55.875 
Q 39.703125 55.765625 41.0625 55.515625 
z
" id="DejaVuSans-114"/>
       <path d="M 34.28125 27.484375 
Q 23.390625 27.484375 19.1875 25 
Q 14.984375 22.515625 14.984375 16.5 
Q 14.984375 11.71875 18.140625 8.90625 
Q 21.296875 6.109375 26.703125 6.109375 
Q 34.1875 6.109375 38.703125 11.40625 
Q 43.21875 16.703125 43.21875 25.484375 
L 43.21875 27.484375 
z
M 52.203125 31.203125 
L 52.203125 0 
L 43.21875 0 
L 43.21875 8.296875 
Q 40.140625 3.328125 35.546875 0.953125 
Q 30.953125 -1.421875 24.3125 -1.421875 
Q 15.921875 -1.421875 10.953125 3.296875 
Q 6 8.015625 6 15.921875 
Q 6 25.140625 12.171875 29.828125 
Q 18.359375 34.515625 30.609375 34.515625 
L 43.21875 34.515625 
L 43.21875 35.40625 
Q 43.21875 41.609375 39.140625 45 
Q 35.0625 48.390625 27.6875 48.390625 
Q 23 48.390625 18.546875 47.265625 
Q 14.109375 46.140625 10.015625 43.890625 
L 10.015625 52.203125 
Q 14.9375 54.109375 19.578125 55.046875 
Q 24.21875 56 28.609375 56 
Q 40.484375 56 46.34375 49.84375 
Q 52.203125 43.703125 52.203125 31.203125 
z
" id="DejaVuSans-97"/>
       <path d="M 30.609375 48.390625 
Q 23.390625 48.390625 19.1875 42.75 
Q 14.984375 37.109375 14.984375 27.296875 
Q 14.984375 17.484375 19.15625 11.84375 
Q 23.34375 6.203125 30.609375 6.203125 
Q 37.796875 6.203125 41.984375 11.859375 
Q 46.1875 17.53125 46.1875 27.296875 
Q 46.1875 37.015625 41.984375 42.703125 
Q 37.796875 48.390625 30.609375 48.390625 
z
M 30.609375 56 
Q 42.328125 56 49.015625 48.375 
Q 55.71875 40.765625 55.71875 27.296875 
Q 55.71875 13.875 49.015625 6.21875 
Q 42.328125 -1.421875 30.609375 -1.421875 
Q 18.84375 -1.421875 12.171875 6.21875 
Q 5.515625 13.875 5.515625 27.296875 
Q 5.515625 40.765625 12.171875 48.375 
Q 18.84375 56 30.609375 56 
z
" id="DejaVuSans-111"/>
       <path d="M 54.890625 33.015625 
L 54.890625 0 
L 45.90625 0 
L 45.90625 32.71875 
Q 45.90625 40.484375 42.875 44.328125 
Q 39.84375 48.1875 33.796875 48.1875 
Q 26.515625 48.1875 22.3125 43.546875 
Q 18.109375 38.921875 18.109375 30.90625 
L 18.109375 0 
L 9.078125 0 
L 9.078125 54.6875 
L 18.109375 54.6875 
L 18.109375 46.1875 
Q 21.34375 51.125 25.703125 53.5625 
Q 30.078125 56 35.796875 56 
Q 45.21875 56 50.046875 50.171875 
Q 54.890625 44.34375 54.890625 33.015625 
z
" id="DejaVuSans-110"/>
       <path d="M 44.28125 53.078125 
L 44.28125 44.578125 
Q 40.484375 46.53125 36.375 47.5 
Q 32.28125 48.484375 27.875 48.484375 
Q 21.1875 48.484375 17.84375 46.4375 
Q 14.5 44.390625 14.5 40.28125 
Q 14.5 37.15625 16.890625 35.375 
Q 19.28125 33.59375 26.515625 31.984375 
L 29.59375 31.296875 
Q 39.15625 29.25 43.1875 25.515625 
Q 47.21875 21.78125 47.21875 15.09375 
Q 47.21875 7.46875 41.1875 3.015625 
Q 35.15625 -1.421875 24.609375 -1.421875 
Q 20.21875 -1.421875 15.453125 -0.5625 
Q 10.6875 0.296875 5.421875 2 
L 5.421875 11.28125 
Q 10.40625 8.6875 15.234375 7.390625 
Q 20.0625 6.109375 24.8125 6.109375 
Q 31.15625 6.109375 34.5625 8.28125 
Q 37.984375 10.453125 37.984375 14.40625 
Q 37.984375 18.0625 35.515625 20.015625 
Q 33.0625 21.96875 24.703125 23.78125 
L 21.578125 24.515625 
Q 13.234375 26.265625 9.515625 29.90625 
Q 5.8125 33.546875 5.8125 39.890625 
Q 5.8125 47.609375 11.28125 51.796875 
Q 16.75 56 26.8125 56 
Q 31.78125 56 36.171875 55.265625 
Q 40.578125 54.546875 44.28125 53.078125 
z
" id="DejaVuSans-115"/>
      </defs>
      <use xlink:href="#DejaVuSans-105"/>
      <use x="27.783203" xlink:href="#DejaVuSans-116"/>
      <use x="66.992188" xlink:href="#DejaVuSans-101"/>
      <use x="128.515625" xlink:href="#DejaVuSans-114"/>
      <use x="169.628906" xlink:href="#DejaVuSans-97"/>
      <use x="230.908203" xlink:href="#DejaVuSans-116"/>
      <use x="270.117188" xlink:href="#DejaVuSans-105"/>
      <use x="297.900391" xlink:href="#DejaVuSans-111"/>
      <use x="359.082031" xlink:href="#DejaVuSans-110"/>
      <use x="422.460938" xlink:href="#DejaVuSans-115"/>
     </g>
    </g>
   </g>
   <g id="matplotlib.axis_2">
    <g id="ytick_1">
     <g id="line2d_7">
      <defs>
       <path d="M 0 0 
L -3.5 0 
" id="m2b2655f406" style="stroke:#000000;stroke-width:0.8;"/>
      </defs>
      <g>
       <use style="stroke:#000000;stroke-width:0.8;" x="45" xlink:href="#m2b2655f406" y="248.276364"/>
      </g>
     </g>
     <g id="text_8">
      <!-- 0.00 -->
      <g transform="translate(15.734375 252.075582)scale(0.1 -0.1)">
       <defs>
        <path d="M 10.6875 12.40625 
L 21 12.40625 
L 21 0 
L 10.6875 0 
z
" id="DejaVuSans-46"/>
       </defs>
       <use xlink:href="#DejaVuSans-48"/>
       <use x="63.623047" xlink:href="#DejaVuSans-46"/>
       <use x="95.410156" xlink:href="#DejaVuSans-48"/>
       <use x="159.033203" xlink:href="#DejaVuSans-48"/>
      </g>
     </g>
    </g>
    <g id="ytick_2">
     <g id="line2d_8">
      <g>
       <use style="stroke:#000000;stroke-width:0.8;" x="45" xlink:href="#m2b2655f406" y="207.549091"/>
      </g>
     </g>
     <g id="text_9">
      <!-- 0.02 -->
      <g transform="translate(15.734375 211.34831)scale(0.1 -0.1)">
       <use xlink:href="#DejaVuSans-48"/>
       <use x="63.623047" xlink:href="#DejaVuSans-46"/>
       <use x="95.410156" xlink:href="#DejaVuSans-48"/>
       <use x="159.033203" xlink:href="#DejaVuSans-50"/>
      </g>
     </g>
    </g>
    <g id="ytick_3">
     <g id="line2d_9">
      <g>
       <use style="stroke:#000000;stroke-width:0.8;" x="45" xlink:href="#m2b2655f406" y="166.821818"/>
      </g>
     </g>
     <g id="text_10">
      <!-- 0.04 -->
      <g transform="translate(15.734375 170.621037)scale(0.1 -0.1)">
       <defs>
        <path d="M 37.796875 64.3125 
L 12.890625 25.390625 
L 37.796875 25.390625 
z
M 35.203125 72.90625 
L 47.609375 72.90625 
L 47.609375 25.390625 
L 58.015625 25.390625 
L 58.015625 17.1875 
L 47.609375 17.1875 
L 47.609375 0 
L 37.796875 0 
L 37.796875 17.1875 
L 4.890625 17.1875 
L 4.890625 26.703125 
z
" id="DejaVuSans-52"/>
       </defs>
       <use xlink:href="#DejaVuSans-48"/>
       <use x="63.623047" xlink:href="#DejaVuSans-46"/>
       <use x="95.410156" xlink:href="#DejaVuSans-48"/>
       <use x="159.033203" xlink:href="#DejaVuSans-52"/>
      </g>
     </g>
    </g>
    <g id="ytick_4">
     <g id="line2d_10">
      <g>
       <use style="stroke:#000000;stroke-width:0.8;" x="45" xlink:href="#m2b2655f406" y="126.094545"/>
      </g>
     </g>
     <g id="text_11">
      <!-- 0.06 -->
      <g transform="translate(15.734375 129.893764)scale(0.1 -0.1)">
       <defs>
        <path d="M 33.015625 40.375 
Q 26.375 40.375 22.484375 35.828125 
Q 18.609375 31.296875 18.609375 23.390625 
Q 18.609375 15.53125 22.484375 10.953125 
Q 26.375 6.390625 33.015625 6.390625 
Q 39.65625 6.390625 43.53125 10.953125 
Q 47.40625 15.53125 47.40625 23.390625 
Q 47.40625 31.296875 43.53125 35.828125 
Q 39.65625 40.375 33.015625 40.375 
z
M 52.59375 71.296875 
L 52.59375 62.3125 
Q 48.875 64.0625 45.09375 64.984375 
Q 41.3125 65.921875 37.59375 65.921875 
Q 27.828125 65.921875 22.671875 59.328125 
Q 17.53125 52.734375 16.796875 39.40625 
Q 19.671875 43.65625 24.015625 45.921875 
Q 28.375 48.1875 33.59375 48.1875 
Q 44.578125 48.1875 50.953125 41.515625 
Q 57.328125 34.859375 57.328125 23.390625 
Q 57.328125 12.15625 50.6875 5.359375 
Q 44.046875 -1.421875 33.015625 -1.421875 
Q 20.359375 -1.421875 13.671875 8.265625 
Q 6.984375 17.96875 6.984375 36.375 
Q 6.984375 53.65625 15.1875 63.9375 
Q 23.390625 74.21875 37.203125 74.21875 
Q 40.921875 74.21875 44.703125 73.484375 
Q 48.484375 72.75 52.59375 71.296875 
z
" id="DejaVuSans-54"/>
       </defs>
       <use xlink:href="#DejaVuSans-48"/>
       <use x="63.623047" xlink:href="#DejaVuSans-46"/>
       <use x="95.410156" xlink:href="#DejaVuSans-48"/>
       <use x="159.033203" xlink:href="#DejaVuSans-54"/>
      </g>
     </g>
    </g>
    <g id="ytick_5">
     <g id="line2d_11">
      <g>
       <use style="stroke:#000000;stroke-width:0.8;" x="45" xlink:href="#m2b2655f406" y="85.367273"/>
      </g>
     </g>
     <g id="text_12">
      <!-- 0.08 -->
      <g transform="translate(15.734375 89.166491)scale(0.1 -0.1)">
       <defs>
        <path d="M 31.78125 34.625 
Q 24.75 34.625 20.71875 30.859375 
Q 16.703125 27.09375 16.703125 20.515625 
Q 16.703125 13.921875 20.71875 10.15625 
Q 24.75 6.390625 31.78125 6.390625 
Q 38.8125 6.390625 42.859375 10.171875 
Q 46.921875 13.96875 46.921875 20.515625 
Q 46.921875 27.09375 42.890625 30.859375 
Q 38.875 34.625 31.78125 34.625 
z
M 21.921875 38.8125 
Q 15.578125 40.375 12.03125 44.71875 
Q 8.5 49.078125 8.5 55.328125 
Q 8.5 64.0625 14.71875 69.140625 
Q 20.953125 74.21875 31.78125 74.21875 
Q 42.671875 74.21875 48.875 69.140625 
Q 55.078125 64.0625 55.078125 55.328125 
Q 55.078125 49.078125 51.53125 44.71875 
Q 48 40.375 41.703125 38.8125 
Q 48.828125 37.15625 52.796875 32.3125 
Q 56.78125 27.484375 56.78125 20.515625 
Q 56.78125 9.90625 50.3125 4.234375 
Q 43.84375 -1.421875 31.78125 -1.421875 
Q 19.734375 -1.421875 13.25 4.234375 
Q 6.78125 9.90625 6.78125 20.515625 
Q 6.78125 27.484375 10.78125 32.3125 
Q 14.796875 37.15625 21.921875 38.8125 
z
M 18.3125 54.390625 
Q 18.3125 48.734375 21.84375 45.5625 
Q 25.390625 42.390625 31.78125 42.390625 
Q 38.140625 42.390625 41.71875 45.5625 
Q 45.3125 48.734375 45.3125 54.390625 
Q 45.3125 60.0625 41.71875 63.234375 
Q 38.140625 66.40625 31.78125 66.40625 
Q 25.390625 66.40625 21.84375 63.234375 
Q 18.3125 60.0625 18.3125 54.390625 
z
" id="DejaVuSans-56"/>
       </defs>
       <use xlink:href="#DejaVuSans-48"/>
       <use x="63.623047" xlink:href="#DejaVuSans-46"/>
       <use x="95.410156" xlink:href="#DejaVuSans-48"/>
       <use x="159.033203" xlink:href="#DejaVuSans-56"/>
      </g>
     </g>
    </g>
    <g id="ytick_6">
     <g id="line2d_12">
      <g>
       <use style="stroke:#000000;stroke-width:0.8;" x="45" xlink:href="#m2b2655f406" y="44.64"/>
      </g>
     </g>
     <g id="text_13">
      <!-- 0.10 -->
      <g transform="translate(15.734375 48.439219)scale(0.1 -0.1)">
       <use xlink:href="#DejaVuSans-48"/>
       <use x="63.623047" xlink:href="#DejaVuSans-46"/>
       <use x="95.410156" xlink:href="#DejaVuSans-49"/>
       <use x="159.033203" xlink:href="#DejaVuSans-48"/>
      </g>
     </g>
    </g>
    <g id="text_14">
     <!-- learning rate -->
     <g transform="translate(9.654687 177.58375)rotate(-90)scale(0.1 -0.1)">
      <defs>
       <path d="M 9.421875 75.984375 
L 18.40625 75.984375 
L 18.40625 0 
L 9.421875 0 
z
" id="DejaVuSans-108"/>
       <path d="M 45.40625 27.984375 
Q 45.40625 37.75 41.375 43.109375 
Q 37.359375 48.484375 30.078125 48.484375 
Q 22.859375 48.484375 18.828125 43.109375 
Q 14.796875 37.75 14.796875 27.984375 
Q 14.796875 18.265625 18.828125 12.890625 
Q 22.859375 7.515625 30.078125 7.515625 
Q 37.359375 7.515625 41.375 12.890625 
Q 45.40625 18.265625 45.40625 27.984375 
z
M 54.390625 6.78125 
Q 54.390625 -7.171875 48.1875 -13.984375 
Q 42 -20.796875 29.203125 -20.796875 
Q 24.46875 -20.796875 20.265625 -20.09375 
Q 16.0625 -19.390625 12.109375 -17.921875 
L 12.109375 -9.1875 
Q 16.0625 -11.328125 19.921875 -12.34375 
Q 23.78125 -13.375 27.78125 -13.375 
Q 36.625 -13.375 41.015625 -8.765625 
Q 45.40625 -4.15625 45.40625 5.171875 
L 45.40625 9.625 
Q 42.625 4.78125 38.28125 2.390625 
Q 33.9375 0 27.875 0 
Q 17.828125 0 11.671875 7.65625 
Q 5.515625 15.328125 5.515625 27.984375 
Q 5.515625 40.671875 11.671875 48.328125 
Q 17.828125 56 27.875 56 
Q 33.9375 56 38.28125 53.609375 
Q 42.625 51.21875 45.40625 46.390625 
L 45.40625 54.6875 
L 54.390625 54.6875 
z
" id="DejaVuSans-103"/>
       <path id="DejaVuSans-32"/>
      </defs>
      <use xlink:href="#DejaVuSans-108"/>
      <use x="27.783203" xlink:href="#DejaVuSans-101"/>
      <use x="89.306641" xlink:href="#DejaVuSans-97"/>
      <use x="150.585938" xlink:href="#DejaVuSans-114"/>
      <use x="189.949219" xlink:href="#DejaVuSans-110"/>
      <use x="253.328125" xlink:href="#DejaVuSans-105"/>
      <use x="281.111328" xlink:href="#DejaVuSans-110"/>
      <use x="344.490234" xlink:href="#DejaVuSans-103"/>
      <use x="407.966797" xlink:href="#DejaVuSans-32"/>
      <use x="439.753906" xlink:href="#DejaVuSans-114"/>
      <use x="480.867188" xlink:href="#DejaVuSans-97"/>
      <use x="542.146484" xlink:href="#DejaVuSans-116"/>
      <use x="581.355469" xlink:href="#DejaVuSans-101"/>
     </g>
    </g>
   </g>
   <g id="line2d_13">
    <path clip-path="url(#p3c07c906d3)" d="M 57.681818 245.79761 
L 57.774477 245.79761 
L 57.867137 44.64 
L 57.88492 244.630234 
L 57.959796 244.630234 
L 58.052455 149.370643 
L 58.070238 222.738267 
L 58.145114 222.738267 
L 58.237774 235.747206 
L 58.238709 187.249785 
L 58.252749 187.249785 
L 58.330433 187.249785 
L 58.423092 241.739806 
L 58.441811 208.733777 
L 58.515751 208.733777 
L 58.60841 107.079385 
L 58.609346 245.79761 
L 58.626193 245.79761 
L 59.544362 245.79761 
L 59.65574 245.042417 
L 59.730616 245.042417 
L 59.841995 44.64 
L 59.916871 44.64 
L 60.028249 223.29798 
L 60.103125 223.29798 
L 60.214504 176.951842 
L 60.28938 176.951842 
L 60.400758 239.247989 
L 60.475634 239.247989 
L 60.587012 206.064595 
L 60.661888 206.064595 
L 60.773267 144.779277 
L 60.848143 144.779277 
L 60.959521 235.511707 
L 61.034397 235.511707 
L 61.145775 242.362375 
L 61.220652 242.362375 
L 61.33203 246.238962 
L 61.406906 246.238962 
L 61.518284 176.951842 
L 63.278809 176.951842 
L 63.390188 240.506789 
L 63.652254 240.506789 
L 63.763632 44.64 
L 64.025699 44.64 
L 64.137077 208.481695 
L 64.399144 208.481695 
L 64.510522 221.376437 
L 64.772588 221.376437 
L 64.883967 191.70882 
L 65.146033 191.70882 
L 65.257411 101.761177 
L 65.519478 101.761177 
L 65.630856 246.234855 
L 65.892923 246.234855 
L 66.004301 244.284251 
L 66.266367 244.284251 
L 66.377746 234.262264 
L 66.639812 234.262264 
L 66.75119 157.632055 
L 67.013257 157.632055 
L 67.124635 208.481695 
L 70.757064 208.481695 
L 70.868442 244.893678 
L 71.504889 244.893678 
L 71.616267 44.64 
L 72.252715 44.64 
L 72.364093 238.23671 
L 73.00054 238.23671 
L 73.111918 199.681078 
L 73.748365 199.681078 
L 73.859744 246.24 
L 74.496191 246.24 
L 74.607569 142.203114 
L 75.244016 142.203114 
L 75.355394 226.630272 
L 75.991842 226.630272 
L 76.10322 242.38701 
L 76.739667 242.38701 
L 76.851045 215.813544 
L 77.487492 215.813544 
L 77.598871 175.812535 
L 85.722932 175.812535 
L 85.83431 223.238251 
L 86.455782 223.238251 
L 86.56716 246.24 
L 87.188632 246.24 
L 87.30001 245.280344 
L 87.921482 245.280344 
L 88.03286 44.64 
L 88.654332 44.64 
L 88.765711 173.847275 
L 89.387183 173.847275 
L 89.498561 239.240891 
L 90.120033 239.240891 
L 90.231411 205.032399 
L 90.852883 205.032399 
L 90.964261 243.073604 
L 91.585733 243.073604 
L 91.697111 233.235618 
L 92.318583 233.235618 
L 92.429962 125.166338 
L 93.051434 125.166338 
L 93.162812 205.032399 
L 100.539047 205.032399 
L 100.650426 156.368191 
L 101.271897 156.368191 
L 101.383276 246.24 
L 102.004748 246.24 
L 102.116126 242.458473 
L 102.737598 242.458473 
L 102.848976 44.64 
L 103.470448 44.64 
L 103.581826 225.440397 
L 104.203298 225.440397 
L 104.314677 202.574789 
L 104.936148 202.574789 
L 105.047527 237.757264 
L 105.668999 237.757264 
L 105.780377 244.834634 
L 106.401849 244.834634 
L 106.513227 111.387933 
L 107.134699 111.387933 
L 107.246077 232.743354 
L 107.867549 232.743354 
L 107.978927 246.24 
L 115.355163 246.24 
L 115.466541 241.117845 
L 116.088013 241.117845 
L 116.199391 44.64 
L 116.820863 44.64 
L 116.932242 210.111249 
L 117.553714 210.111249 
L 117.665092 246.24 
L 118.286564 246.24 
L 118.397942 158.348196 
L 119.019414 158.348196 
L 119.130792 232.162456 
L 119.752264 232.162456 
L 119.863642 244.643524 
L 120.485114 244.643524 
L 120.596493 223.487067 
L 121.217965 223.487067 
L 121.329343 189.88718 
L 121.950815 189.88718 
L 122.062193 237.773951 
L 122.683665 237.773951 
L 122.795043 246.24 
L 130.171279 246.24 
L 130.282657 224.437637 
L 130.904129 224.437637 
L 131.015507 246.24 
L 131.636979 246.24 
L 131.748357 241.825361 
L 132.369829 241.825361 
L 132.481207 45.063629 
L 133.102679 45.063629 
L 133.214058 174.445586 
L 133.83553 174.445586 
L 133.946908 235.876457 
L 134.56838 235.876457 
L 134.679758 244.767684 
L 135.30123 244.767684 
L 135.412608 205.354648 
L 136.03408 205.354648 
L 136.145458 118.349633 
L 136.76693 118.349633 
L 136.878309 231.083777 
L 137.499781 231.083777 
L 137.611159 241.825361 
L 144.987394 241.825361 
L 145.098773 228.574279 
L 145.720245 228.574279 
L 145.831623 44.64 
L 146.453095 44.64 
L 146.564473 246.235046 
L 147.185945 246.235046 
L 147.297323 184.927062 
L 147.918795 184.927062 
L 148.030173 241.947207 
L 148.651645 241.947207 
L 148.763024 212.947777 
L 149.384496 212.947777 
L 149.495874 133.047722 
L 150.117346 133.047722 
L 150.228724 237.109812 
L 150.850196 237.109812 
L 150.961574 245.176207 
L 151.583046 245.176207 
L 151.694424 243.846765 
L 152.315896 243.846765 
L 152.427275 44.64 
L 159.80351 44.64 
L 159.914888 241.742803 
L 160.53636 241.742803 
L 160.647738 44.64 
L 161.26921 44.64 
L 161.380589 211.813779 
L 162.002061 211.813779 
L 162.113439 243.625391 
L 162.734911 243.625391 
L 162.846289 246.24 
L 163.467761 246.24 
L 163.579139 157.180441 
L 164.200611 157.180441 
L 164.311989 232.610732 
L 164.933461 232.610732 
L 165.04484 190.664574 
L 165.666312 190.664574 
L 165.77769 238.158281 
L 166.399162 238.158281 
L 166.51054 224.371349 
L 167.132012 224.371349 
L 167.24339 238.158281 
L 174.619626 238.158281 
L 174.731004 244.201789 
L 175.352476 244.201789 
L 175.463854 44.64 
L 176.085326 44.64 
L 176.196704 219.481322 
L 176.818176 219.481322 
L 176.929555 171.698467 
L 177.551026 171.698467 
L 177.662405 238.011721 
L 178.283877 238.011721 
L 178.395255 246.24 
L 179.016727 246.24 
L 179.128105 231.057004 
L 179.749577 231.057004 
L 179.860955 122.150243 
L 180.482427 122.150243 
L 180.593806 201.346858 
L 181.215277 201.346858 
L 181.326656 241.965609 
L 181.948128 241.965609 
L 182.059506 246.24 
L 189.435741 246.24 
L 189.54712 205.062914 
L 190.168592 205.062914 
L 190.27997 246.24 
L 190.901442 246.24 
L 191.01282 44.64 
L 191.634292 44.64 
L 191.74567 245.263872 
L 192.367142 245.263872 
L 192.47852 236.073083 
L 193.099992 236.073083 
L 193.211371 152.149439 
L 193.832843 152.149439 
L 193.944221 242.181331 
L 194.565693 242.181331 
L 194.677071 225.293949 
L 195.298543 225.293949 
L 195.409921 183.70652 
L 196.031393 183.70652 
L 196.142771 107.58861 
L 204.251857 107.58861 
L 204.363235 186.474502 
L 204.984707 186.474502 
L 205.096086 246.24 
L 205.717557 246.24 
L 205.828936 237.065617 
L 206.450408 237.065617 
L 206.561786 44.64 
L 207.183258 44.64 
L 207.294636 221.95757 
L 207.916108 221.95757 
L 208.027486 243.542317 
L 208.648958 243.542317 
L 208.760336 132.710693 
L 209.381808 132.710693 
L 209.493187 240.991737 
L 210.114659 240.991737 
L 210.226037 207.946393 
L 210.847509 207.946393 
L 210.958887 231.10027 
L 211.580359 231.10027 
L 211.691737 132.710693 
L 219.067973 132.710693 
L 219.179351 243.872766 
L 219.800823 243.872766 
L 219.912201 44.64 
L 220.533673 44.64 
L 220.645051 225.092029 
L 221.266523 225.092029 
L 221.377902 179.458244 
L 221.999374 179.458244 
L 222.110752 238.172354 
L 222.732224 238.172354 
L 222.843602 246.24 
L 223.465074 246.24 
L 223.576452 130.423818 
L 224.197924 130.423818 
L 224.309302 208.511897 
L 224.930774 208.511897 
L 225.042153 232.971255 
L 225.663624 232.971255 
L 225.775003 241.605928 
L 226.396475 241.605928 
L 226.507853 130.423818 
L 233.884088 130.423818 
L 233.995467 47.5548 
L 234.616939 47.5548 
L 234.728317 246.24 
L 235.349789 246.24 
L 235.461167 228.064133 
L 236.082639 228.064133 
L 236.194017 241.860804 
L 236.815489 241.860804 
L 236.926867 180.522601 
L 237.548339 180.522601 
L 237.659718 211.269295 
L 238.28119 211.269295 
L 238.392568 244.661937 
L 239.01404 244.661937 
L 239.125418 236.874556 
L 239.74689 236.874556 
L 239.858268 129.34731 
L 240.47974 129.34731 
L 240.591118 220.902456 
L 241.21259 220.902456 
L 241.323969 180.522601 
L 248.700204 180.522601 
L 248.811582 213.391436 
L 249.433054 213.391436 
L 249.544433 246.24 
L 250.165904 246.24 
L 250.277283 44.64 
L 250.898755 44.64 
L 251.010133 239.84843 
L 251.631605 239.84843 
L 251.742983 163.6592 
L 252.364455 163.6592 
L 252.475833 244.284956 
L 253.097305 244.284956 
L 253.208684 230.90965 
L 253.830155 230.90965 
L 253.941534 111.897956 
L 254.563006 111.897956 
L 254.674384 194.35299 
L 255.295856 194.35299 
L 255.407234 242.472531 
L 263.51632 242.472531 
L 263.627698 229.325056 
L 264.24917 229.325056 
L 264.360548 44.64 
L 264.98202 44.64 
L 265.093398 245.577784 
L 265.71487 245.577784 
L 265.826249 186.130396 
L 266.447721 186.130396 
L 266.559099 241.124845 
L 267.180571 241.124845 
L 267.291949 135.252164 
L 267.913421 135.252164 
L 268.024799 246.24 
L 268.646271 246.24 
L 268.757649 214.841117 
L 269.379121 214.841117 
L 269.4905 236.864774 
L 270.111972 236.864774 
L 270.22335 243.854325 
L 270.844822 243.854325 
L 270.9562 246.24 
L 278.332435 246.24 
L 278.443814 244.167692 
L 279.065286 244.167692 
L 279.176664 44.64 
L 279.798136 44.64 
L 279.909514 219.353409 
L 280.530986 219.353409 
L 280.642364 237.377013 
L 281.263836 237.377013 
L 281.375214 171.125274 
L 281.996686 171.125274 
L 282.108065 246.24 
L 282.729537 246.24 
L 282.840915 201.038339 
L 283.462387 201.038339 
L 283.573765 241.585268 
L 284.195237 241.585268 
L 284.306615 122.573274 
L 284.928087 122.573274 
L 285.039465 230.519999 
L 285.660937 230.519999 
L 285.772316 246.24 
L 293.148551 246.24 
L 293.259929 206.533229 
L 293.881401 206.533229 
L 293.99278 246.24 
L 294.614252 246.24 
L 294.72563 44.64 
L 295.347102 44.64 
L 295.45848 239.364215 
L 296.079952 239.364215 
L 296.19133 155.164 
L 296.812802 155.164 
L 296.92418 244.137184 
L 297.545652 244.137184 
L 297.657031 228.915464 
L 298.278502 228.915464 
L 298.389881 105.901685 
L 299.011353 105.901685 
L 299.122731 245.437259 
L 299.744203 245.437259 
L 299.855581 235.095644 
L 300.477053 235.095644 
L 300.588431 246.24 
L 307.964667 246.24 
L 308.076045 243.897328 
L 308.697517 243.897328 
L 308.808895 44.64 
L 309.430367 44.64 
L 309.541745 219.24168 
L 310.163217 219.24168 
L 310.274596 171.384971 
L 310.896068 171.384971 
L 311.007446 246.24 
L 311.318182 246.24 
L 311.318182 246.24 
" style="fill:none;stroke:#1f77b4;stroke-linecap:square;stroke-width:1.5;"/>
   </g>
   <g id="patch_3">
    <path d="M 45 256.32 
L 45 34.56 
" style="fill:none;stroke:#000000;stroke-linecap:square;stroke-linejoin:miter;stroke-width:0.8;"/>
   </g>
   <g id="patch_4">
    <path d="M 324 256.32 
L 324 34.56 
" style="fill:none;stroke:#000000;stroke-linecap:square;stroke-linejoin:miter;stroke-width:0.8;"/>
   </g>
   <g id="patch_5">
    <path d="M 45 256.32 
L 324 256.32 
" style="fill:none;stroke:#000000;stroke-linecap:square;stroke-linejoin:miter;stroke-width:0.8;"/>
   </g>
   <g id="patch_6">
    <path d="M 45 34.56 
L 324 34.56 
" style="fill:none;stroke:#000000;stroke-linecap:square;stroke-linejoin:miter;stroke-width:0.8;"/>
   </g>
   <g id="text_15">
    <!-- lr vs steps (cifar10) -->
    <g transform="translate(126.32625 28.56)scale(0.12 -0.12)">
     <defs>
      <path d="M 2.984375 54.6875 
L 12.5 54.6875 
L 29.59375 8.796875 
L 46.6875 54.6875 
L 56.203125 54.6875 
L 35.6875 0 
L 23.484375 0 
z
" id="DejaVuSans-118"/>
      <path d="M 18.109375 8.203125 
L 18.109375 -20.796875 
L 9.078125 -20.796875 
L 9.078125 54.6875 
L 18.109375 54.6875 
L 18.109375 46.390625 
Q 20.953125 51.265625 25.265625 53.625 
Q 29.59375 56 35.59375 56 
Q 45.5625 56 51.78125 48.09375 
Q 58.015625 40.1875 58.015625 27.296875 
Q 58.015625 14.40625 51.78125 6.484375 
Q 45.5625 -1.421875 35.59375 -1.421875 
Q 29.59375 -1.421875 25.265625 0.953125 
Q 20.953125 3.328125 18.109375 8.203125 
z
M 48.6875 27.296875 
Q 48.6875 37.203125 44.609375 42.84375 
Q 40.53125 48.484375 33.40625 48.484375 
Q 26.265625 48.484375 22.1875 42.84375 
Q 18.109375 37.203125 18.109375 27.296875 
Q 18.109375 17.390625 22.1875 11.75 
Q 26.265625 6.109375 33.40625 6.109375 
Q 40.53125 6.109375 44.609375 11.75 
Q 48.6875 17.390625 48.6875 27.296875 
z
" id="DejaVuSans-112"/>
      <path d="M 31 75.875 
Q 24.46875 64.65625 21.28125 53.65625 
Q 18.109375 42.671875 18.109375 31.390625 
Q 18.109375 20.125 21.3125 9.0625 
Q 24.515625 -2 31 -13.1875 
L 23.1875 -13.1875 
Q 15.875 -1.703125 12.234375 9.375 
Q 8.59375 20.453125 8.59375 31.390625 
Q 8.59375 42.28125 12.203125 53.3125 
Q 15.828125 64.359375 23.1875 75.875 
z
" id="DejaVuSans-40"/>
      <path d="M 48.78125 52.59375 
L 48.78125 44.1875 
Q 44.96875 46.296875 41.140625 47.34375 
Q 37.3125 48.390625 33.40625 48.390625 
Q 24.65625 48.390625 19.8125 42.84375 
Q 14.984375 37.3125 14.984375 27.296875 
Q 14.984375 17.28125 19.8125 11.734375 
Q 24.65625 6.203125 33.40625 6.203125 
Q 37.3125 6.203125 41.140625 7.25 
Q 44.96875 8.296875 48.78125 10.40625 
L 48.78125 2.09375 
Q 45.015625 0.34375 40.984375 -0.53125 
Q 36.96875 -1.421875 32.421875 -1.421875 
Q 20.0625 -1.421875 12.78125 6.34375 
Q 5.515625 14.109375 5.515625 27.296875 
Q 5.515625 40.671875 12.859375 48.328125 
Q 20.21875 56 33.015625 56 
Q 37.15625 56 41.109375 55.140625 
Q 45.0625 54.296875 48.78125 52.59375 
z
" id="DejaVuSans-99"/>
      <path d="M 37.109375 75.984375 
L 37.109375 68.5 
L 28.515625 68.5 
Q 23.6875 68.5 21.796875 66.546875 
Q 19.921875 64.59375 19.921875 59.515625 
L 19.921875 54.6875 
L 34.71875 54.6875 
L 34.71875 47.703125 
L 19.921875 47.703125 
L 19.921875 0 
L 10.890625 0 
L 10.890625 47.703125 
L 2.296875 47.703125 
L 2.296875 54.6875 
L 10.890625 54.6875 
L 10.890625 58.5 
Q 10.890625 67.625 15.140625 71.796875 
Q 19.390625 75.984375 28.609375 75.984375 
z
" id="DejaVuSans-102"/>
      <path d="M 8.015625 75.875 
L 15.828125 75.875 
Q 23.140625 64.359375 26.78125 53.3125 
Q 30.421875 42.28125 30.421875 31.390625 
Q 30.421875 20.453125 26.78125 9.375 
Q 23.140625 -1.703125 15.828125 -13.1875 
L 8.015625 -13.1875 
Q 14.5 -2 17.703125 9.0625 
Q 20.90625 20.125 20.90625 31.390625 
Q 20.90625 42.671875 17.703125 53.65625 
Q 14.5 64.65625 8.015625 75.875 
z
" id="DejaVuSans-41"/>
     </defs>
     <use xlink:href="#DejaVuSans-108"/>
     <use x="27.783203" xlink:href="#DejaVuSans-114"/>
     <use x="68.896484" xlink:href="#DejaVuSans-32"/>
     <use x="100.683594" xlink:href="#DejaVuSans-118"/>
     <use x="159.863281" xlink:href="#DejaVuSans-115"/>
     <use x="211.962891" xlink:href="#DejaVuSans-32"/>
     <use x="243.75" xlink:href="#DejaVuSans-115"/>
     <use x="295.849609" xlink:href="#DejaVuSans-116"/>
     <use x="335.058594" xlink:href="#DejaVuSans-101"/>
     <use x="396.582031" xlink:href="#DejaVuSans-112"/>
     <use x="460.058594" xlink:href="#DejaVuSans-115"/>
     <use x="512.158203" xlink:href="#DejaVuSans-32"/>
     <use x="543.945312" xlink:href="#DejaVuSans-40"/>
     <use x="582.958984" xlink:href="#DejaVuSans-99"/>
     <use x="637.939453" xlink:href="#DejaVuSans-105"/>
     <use x="665.722656" xlink:href="#DejaVuSans-102"/>
     <use x="700.927734" xlink:href="#DejaVuSans-97"/>
     <use x="762.207031" xlink:href="#DejaVuSans-114"/>
     <use x="803.320312" xlink:href="#DejaVuSans-49"/>
     <use x="866.943359" xlink:href="#DejaVuSans-48"/>
     <use x="930.566406" xlink:href="#DejaVuSans-41"/>
    </g>
   </g>
  </g>
 </g>
 <defs>
  <clipPath id="p3c07c906d3">
   <rect height="221.76" width="279" x="45" y="34.56"/>
  </clipPath>
 </defs>
</svg>
